<?xml version="1.0" encoding="utf-8"?>
<!-- Generator: Adobe Illustrator 16.0.0, SVG Export Plug-In . SVG Version: 6.00 Build 0)  -->
<!DOCTYPE svg PUBLIC "-//W3C//DTD SVG 1.1//EN" "http://www.w3.org/Graphics/SVG/1.1/DTD/svg11.dtd">
<svg version="1.1" id="Layer_1" xmlns="http://www.w3.org/2000/svg" xmlns:xlink="http://www.w3.org/1999/xlink" x="0px" y="0px"
	 width="139.047px" height="36.141px" viewBox="0 0 139.047 36.141" enable-background="new 0 0 139.047 36.141"
	 xml:space="preserve">
<g>
	<defs>
		<rect id="SVGID_1_" width="139.047" height="36.141"/>
	</defs>
	<clipPath id="SVGID_2_">
		<use xlink:href="#SVGID_1_"  overflow="visible"/>
	</clipPath>
	<path clip-path="url(#SVGID_2_)" fill="#FFFFFF" d="M44.725,27.969c0.166,0.043,0.299,0.078,0.432,0.113
		c-0.047-0.125-0.119-0.248-0.137-0.377c-0.039-0.289-0.185-0.695-0.05-0.852c0.349-0.406,0.344-0.83,0.416-1.309
		c0.142-0.951-0.135-1.41-1.047-1.414c-1.877-0.008-3.755,0.008-5.631-0.047c-1.737-0.049-3.473-0.172-5.208-0.279
		c-0.282-0.018-0.623,0.039-0.66-0.447c-0.087-1.166-0.237-2.328-0.348-3.492c-0.311-3.266-0.574-6.538-0.935-9.798
		c-0.235-2.12-0.611-4.225-0.918-6.337c-0.157-1.077-0.293-2.157-0.454-3.232c-0.043-0.287-0.111-0.602-0.547-0.466
		c-1.18,0.367-2.361,0.732-3.541,1.099c-0.428,0.133-0.583,0.454-0.542,0.856c0.076,0.731,0.175,1.46,0.285,2.188
		c0.24,1.583,0.519,3.162,0.735,4.749c0.248,1.824,0.444,3.654,0.663,5.48c0.179,1.48,0.387,2.957,0.529,4.44
		c0.097,1.014,0.073,2.039,0.157,3.053c0.082,0.998,0.286,1.986,0.336,2.984c0.059,1.178-0.049,2.371,0.494,3.506
		c0.213,0,0.417,0.004,0.62-0.002c0.76-0.021,1.523-0.1,2.279-0.055c2.426,0.146,4.848,0.367,7.275,0.508
		c1.731,0.1,3.467,0.113,5.2,0.176c0.684,0.025,0.806-0.117,0.601-0.746C44.701,28.182,44.725,28.081,44.725,27.969 M40.802,2.994
		c0.046,0.516,0.08,0.897,0.114,1.279c0.098,1.096,0.179,2.192,0.312,3.282c0.017,0.134,0.298,0.313,0.472,0.333
		c0.255,0.03,0.523-0.09,0.788-0.101c1.215-0.055,2.431-0.104,3.646-0.131c0.939-0.02,1.879-0.004,2.893-0.004
		c0.036,0.783,0.07,1.561,0.109,2.336c0.042,0.82,0.065,1.643,0.14,2.46c0.061,0.655,0.184,1.306,0.285,1.957
		c0.021,0.138,0.069,0.271,0.101,0.407c0.086,0.36,0.217,0.715,0.248,1.079c0.084,0.971,0.114,1.946,0.189,2.917
		c0.045,0.588,0.09,1.186,0.215,1.76c0.25,1.152-0.09,2.361,0.382,3.486c0.029,0.07-0.07,0.188-0.059,0.275
		c0.043,0.34,0.087,0.682,0.169,1.014c0.059,0.242,0.327,0.576,0.246,0.689c-0.428,0.602-0.099,1.221-0.214,1.82
		c0.544,0.184,1.036,0.506,1.489,0.461c0.675-0.068,1.253,0.162,1.832,0.336c1.233,0.369,1.612,0.137,1.54-1.129
		c-0.002-0.041-0.013-0.08-0.017-0.121c-0.168-1.508-0.328-3.016-0.503-4.521c-0.448-3.869-0.9-7.738-1.356-11.605
		c-0.143-1.215-0.302-2.428-0.46-3.692c0.29-0.017,0.555-0.041,0.821-0.045c2.11-0.03,4.222-0.027,6.331-0.098
		c1.219-0.041,2.434-0.196,3.652-0.304c0.298-0.025,0.502-0.108,0.474-0.488c-0.097-1.309-0.172-2.621-0.24-3.931
		c-0.02-0.396-0.203-0.463-0.568-0.425c-1.844,0.189-3.686,0.413-5.536,0.513c-1.434,0.078-2.878-0.019-4.318-0.02
		c-1.191,0-2.383,0.02-3.574,0.047C49.27,2.857,48.135,2.914,47,2.938c-1.313,0.029-2.626,0.041-3.939,0.055
		C42.325,3,41.588,2.994,40.802,2.994 M81.314,28.694c0.09,2.326,0.178,4.617,0.266,6.865c0.459-0.031,0.826-0.057,1.199-0.082
		c-0.023,0.383,0.062,0.484,0.496,0.326c0.401-0.146,0.873-0.105,1.315-0.137c0.185-0.014,0.371-0.002,0.588-0.002
		c0.302,0.129,0.665,0.283,1.119,0.477c0.092-0.422,0.239-0.758,0.223-1.088c-0.063-1.307-0.225-2.611-0.265-3.92
		c-0.068-2.236-0.082-4.473-0.1-6.711c-0.016-2.008-0.092-4.021,0.476-5.986c0.063-0.221,0.03-0.5-0.045-0.721
		c-0.097-0.287-0.289-0.458-0.595-0.15c-0.686,0.689-1.283,0.785-2.262,0.387c-0.103,0.115-0.209,0.234-0.357,0.4
		c0.011-0.592-0.211-0.592-0.549-0.262c-0.115-0.154-0.221-0.291-0.326-0.428c-0.545,0.232-0.799,0.582-0.825,1.156
		c-0.032,0.721-0.177,1.434-0.234,2.15c-0.079,1-0.13,2-0.177,3c-0.021,0.432-0.004,0.865-0.004,1.514
		c-1.377-0.639-2.579-1.191-3.777-1.752c-0.187-0.088-0.349-0.234-0.541-0.303c-1.664-0.588-3.076-1.402-3.953-3.074
		c-0.754-1.432-1.33-2.826-1.283-4.474c0.035-1.286,0.26-2.554,0.899-3.607c1.595-2.625,3.935-4.353,7.035-4.878
		c2.541-0.43,5.097-0.691,7.59,0.295c0.388,0.154,0.576-0.045,0.572-0.391c-0.003-0.273-0.14-0.541-0.175-0.817
		c-0.119-0.925-0.229-1.852-0.326-2.778c-0.053-0.485-0.168-0.813-0.768-0.925c-2.017-0.373-4.012-0.485-6.067-0.209
		c-1.907,0.258-3.757,0.704-5.507,1.419c-1.139,0.467-2.182,1.242-3.152,2.021c-1.4,1.128-2.669,2.411-3.42,4.087
		c-0.163,0.364-0.122,0.851-0.352,1.146c-0.512,0.654-0.789,1.35-0.787,2.178c0.121-0.009,0.226-0.018,0.328-0.024
		c-0.163,0.219-0.31,0.416-0.541,0.729c0.324-0.074,0.487-0.112,0.651-0.15c-0.103,0.195-0.286,0.258-0.393,0.385
		c-0.066,0.078-0.036,0.256-0.016,0.385c0.024,0.149,0.154,0.315,0.117,0.438c-0.145,0.471-0.541,0.957-0.477,1.382
		c0.219,1.448,0.504,2.899,0.94,4.293c0.276,0.881,0.782,1.727,1.338,2.477c0.616,0.83,1.305,1.676,2.146,2.254
		c1.173,0.805,2.495,1.408,3.794,2.018c1.197,0.562,2.438,1.041,3.677,1.51c0.644,0.242,1.353,0.742,1.927-0.178
		C80.822,28.799,81.101,28.778,81.314,28.694 M99.801,28.139c0.898,0,1.748-0.002,2.597,0c1.364,0.004,2.729-0.027,4.091,0.031
		c1.502,0.062,3.002,0.221,4.504,0.307c0.158,0.01,0.467-0.182,0.474-0.293c0.071-1.316,0.101-2.635,0.134-3.953
		c0.01-0.324-0.105-0.543-0.488-0.57c-0.558-0.039-1.111-0.16-1.668-0.166c-1.703-0.021-3.408,0.01-5.111-0.002
		c-1.41-0.01-2.82-0.064-4.231-0.072c-0.39-0.002-0.44-0.193-0.438-0.5c0.008-1.209,0.007-2.42,0.009-3.631
		c0.001-0.814,0-1.627,0-2.463c0.104-0.016,0.204-0.046,0.304-0.042c1.027,0.039,2.055,0.078,3.081,0.13
		c2.022,0.1,4.046,0.211,6.069,0.311c0.41,0.021,0.637-0.121,0.49-0.589c-0.095-0.301-0.182-0.618-0.189-0.929
		c-0.016-0.715,0.029-1.431,0.031-2.146c0-0.381-0.041-0.762-0.062-1.138c-3.289-0.13-6.523-0.258-9.76-0.386
		c0-1.859,0.009-3.622-0.006-5.385c-0.004-0.428,0.102-0.648,0.592-0.625c0.575,0.029,1.152-0.023,1.73-0.018
		c1.69,0.019,3.387-0.017,5.071,0.097c1.419,0.097,2.823,0.389,4.237,0.558c0.286,0.033,0.771-0.081,0.55-0.486
		c-0.53-0.969-0.302-1.977-0.313-2.973c-0.012-1.189,0.004-1.169-1.127-1.402c-2.332-0.481-4.703-0.473-7.063-0.549
		c-1.362-0.045-2.729,0.049-4.094,0.078c-0.679,0.015-1.36-0.012-2.034,0.051c-0.35,0.032-0.678,0.283-1.025,0.313
		c-1.017,0.09-1.531,0.513-1.461,1.587c0.133,2.042,0.17,4.091,0.196,6.138c0.037,2.857,0.028,5.716,0.036,8.575
		c0.005,1.947,0.009,3.896,0.006,5.844c-0.003,1.459-0.02,2.918-0.023,4.375c-0.002,0.346,0.018,0.656,0.53,0.625
		c1.21-0.074,2.425-0.166,3.634-0.131C99.593,28.723,99.781,28.581,99.801,28.139 M17.83,21.821
		c0.384,0.939,0.735,1.797,1.084,2.652c0.687,1.689,1.368,3.379,2.067,5.061c0.059,0.143,0.24,0.342,0.353,0.336
		c0.361-0.025,0.718-0.129,1.075-0.209c0.787-0.178,1.564-0.422,2.361-0.521c0.86-0.109,1.17-0.584,0.811-1.402
		c-0.675-1.543-1.32-3.096-2.004-4.633c-1.181-2.656-2.334-5.326-3.586-7.948c-1.593-3.335-3.271-6.63-4.917-9.939
		c-0.556-1.117-1.118-2.231-1.696-3.338c-0.317-0.607-0.591-0.652-1.2-0.278c-0.205,0.126-0.427,0.248-0.658,0.307
		c-0.342,0.086-0.707,0.081-1.047,0.172C9.368,2.372,8.268,2.684,7.172,3.007C7.025,3.051,6.838,3.178,6.792,3.308
		C6.394,4.456,6.017,5.611,5.646,6.77c-0.32,0.998-0.625,2-0.932,3.002c-0.324,1.055-0.663,2.104-0.957,3.166
		c-0.793,2.861-1.57,5.727-2.339,8.594c-0.084,0.311-0.041,0.654-0.12,0.967c-0.257,1.025-0.58,2.035-0.806,3.066
		c-0.217,0.986-0.36,1.99-0.49,2.992c-0.021,0.16,0.19,0.494,0.309,0.5c1.157,0.072,2.173,0.574,3.215,0.986
		c0.66,0.262,0.794,0.248,0.952-0.445c0.226-0.996,0.373-2.012,0.596-3.008c0.338-1.52,0.748-3.021,1.052-4.547
		c0.109-0.547,0.318-0.695,0.848-0.674c3.452,0.137,6.906,0.248,10.36,0.373C17.536,21.749,17.737,21.805,17.83,21.821
		 M135.6,27.323c0.291-0.191,1.354-0.18,1.824,0c1.103,0.424,1.643,0.139,1.622-0.885c-0.017-0.84-0.072-1.678-0.123-2.516
		c-0.073-1.207-0.218-2.412-0.227-3.619c-0.017-2.299,0.081-4.597,0.06-6.897c-0.04-4.045-0.137-8.091-0.201-12.136
		c-0.007-0.438-0.177-0.657-0.634-0.622c-1.133,0.086-2.27,0.15-3.399,0.264c-0.491,0.05-0.85,0.319-0.853,0.876
		c-0.002,0.32,0.014,0.642,0.016,0.964c0.018,1.992,0.018,3.984,0.053,5.977c0.056,3.153,0.135,6.307,0.202,9.458
		c0.004,0.203,0.001,0.404,0.001,0.607c-0.984-1.502-1.788-3.026-2.66-4.508c-1.383-2.354-2.808-4.686-4.223-7.021
		c-1.205-1.988-2.411-3.976-3.646-5.945c-0.114-0.181-0.481-0.362-0.669-0.314c-1.355,0.351-2.697,0.752-4.037,1.156
		c-0.431,0.13-0.521,0.476-0.47,0.889c0.093,0.731,0.201,1.463,0.244,2.198c0.097,1.633,0.162,3.268,0.23,4.902
		c0.091,2.19,0.206,4.38,0.251,6.571c0.066,3.263,0.079,6.529,0.133,9.791c0.003,0.139,0.194,0.383,0.31,0.391
		c0.514,0.035,1.077,0.127,1.535-0.035c0.823-0.295,1.62-0.26,2.433-0.115c0.438,0.076,0.571-0.109,0.577-0.482
		c0.007-0.387,0.012-0.773,0-1.162c-0.077-2.604-0.163-5.209-0.239-7.813c-0.046-1.601-0.071-3.202-0.12-4.802
		c-0.02-0.63-0.079-1.257-0.12-1.886c0.07-0.018,0.14-0.036,0.21-0.055c3.215,5.568,6.431,11.135,9.649,16.708
		C134.063,26.735,134.877,26.758,135.6,27.323"/>
	<path clip-path="url(#SVGID_2_)" d="M135.6,27.323c-0.723-0.564-1.536-0.588-2.271-0.062c-3.219-5.572-6.435-11.139-9.649-16.708
		c-0.07,0.019-0.14,0.037-0.21,0.055c0.041,0.629,0.101,1.256,0.12,1.886c0.049,1.6,0.074,3.201,0.12,4.802
		c0.076,2.604,0.162,5.209,0.239,7.813c0.012,0.389,0.007,0.775,0,1.162c-0.006,0.373-0.139,0.559-0.577,0.482
		c-0.812-0.145-1.609-0.18-2.433,0.115c-0.458,0.162-1.021,0.07-1.535,0.035c-0.115-0.008-0.307-0.252-0.31-0.391
		c-0.054-3.262-0.066-6.527-0.133-9.791c-0.045-2.191-0.16-4.381-0.251-6.571c-0.068-1.635-0.134-3.27-0.23-4.902
		c-0.043-0.735-0.151-1.467-0.244-2.198c-0.052-0.413,0.039-0.759,0.47-0.889c1.34-0.404,2.682-0.806,4.037-1.156
		c0.188-0.048,0.555,0.134,0.669,0.314c1.234,1.97,2.44,3.957,3.646,5.945c1.415,2.335,2.84,4.666,4.223,7.021
		c0.872,1.482,1.676,3.006,2.66,4.508c0-0.203,0.003-0.404-0.001-0.607c-0.067-3.151-0.146-6.304-0.202-9.458
		c-0.035-1.992-0.035-3.984-0.053-5.977c-0.002-0.322-0.018-0.644-0.016-0.964c0.003-0.557,0.361-0.826,0.853-0.876
		c1.13-0.113,2.267-0.178,3.399-0.264c0.457-0.035,0.627,0.185,0.634,0.622c0.064,4.045,0.161,8.091,0.201,12.136
		c0.021,2.3-0.076,4.598-0.06,6.897c0.009,1.207,0.153,2.412,0.227,3.619c0.051,0.838,0.106,1.676,0.123,2.516
		c0.021,1.023-0.52,1.309-1.622,0.885C136.953,27.143,135.891,27.131,135.6,27.323"/>
	<path clip-path="url(#SVGID_2_)" d="M15.484,16.832c-1.686-3.35-3.367-6.689-5.048-10.029c-0.066-0.001-0.131-0.001-0.197-0.001
		c-0.911,3.294-1.822,6.587-2.775,10.03H15.484z M17.83,21.821c-0.094-0.016-0.294-0.072-0.497-0.078
		c-3.453-0.125-6.907-0.236-10.36-0.373c-0.529-0.021-0.739,0.127-0.848,0.674c-0.303,1.525-0.713,3.029-1.052,4.547
		c-0.222,0.996-0.369,2.01-0.596,3.008c-0.157,0.693-0.291,0.705-0.951,0.445c-1.042-0.412-2.058-0.914-3.215-0.986
		c-0.119-0.006-0.33-0.34-0.31-0.5c0.13-1.002,0.274-2.006,0.49-2.992c0.226-1.031,0.55-2.041,0.807-3.066
		c0.078-0.312,0.036-0.656,0.119-0.967c0.77-2.867,1.547-5.733,2.339-8.594c0.294-1.062,0.634-2.111,0.957-3.166
		C5.02,8.77,5.326,7.768,5.646,6.77c0.371-1.157,0.747-2.313,1.146-3.462C6.837,3.177,7.024,3.05,7.171,3.007
		c1.096-0.324,2.197-0.636,3.302-0.928c0.339-0.091,0.705-0.086,1.047-0.172c0.231-0.059,0.452-0.181,0.658-0.307
		c0.609-0.374,0.882-0.33,1.2,0.278c0.577,1.106,1.14,2.221,1.696,3.338c1.646,3.311,3.324,6.605,4.916,9.94
		c1.253,2.623,2.406,5.291,3.587,7.947c0.683,1.537,1.329,3.092,2.004,4.633c0.359,0.818,0.048,1.293-0.812,1.4
		c-0.796,0.102-1.574,0.346-2.36,0.523c-0.357,0.08-0.714,0.184-1.076,0.209c-0.112,0.006-0.294-0.193-0.353-0.336
		c-0.699-1.682-1.379-3.371-2.066-5.061C18.565,23.618,18.214,22.76,17.83,21.821"/>
	<path clip-path="url(#SVGID_2_)" d="M99.801,28.139c-0.019,0.441-0.207,0.584-0.731,0.57c-1.209-0.035-2.422,0.057-3.632,0.131
		c-0.514,0.031-0.533-0.279-0.532-0.625c0.004-1.457,0.021-2.916,0.024-4.375c0.002-1.947-0.002-3.896-0.006-5.844
		c-0.008-2.859,0-5.717-0.037-8.575c-0.025-2.047-0.063-4.096-0.195-6.138c-0.07-1.074,0.445-1.497,1.462-1.587
		c0.349-0.03,0.676-0.282,1.024-0.313c0.674-0.062,1.355-0.036,2.035-0.051c1.364-0.029,2.73-0.123,4.094-0.078
		c2.361,0.076,4.731,0.067,7.063,0.549c1.13,0.233,1.113,0.213,1.126,1.402c0.012,0.996-0.216,2.004,0.314,2.973
		c0.221,0.405-0.266,0.52-0.551,0.486c-1.414-0.169-2.818-0.461-4.236-0.558c-1.686-0.113-3.381-0.078-5.072-0.097
		c-0.576-0.006-1.156,0.047-1.73,0.018c-0.49-0.023-0.596,0.197-0.592,0.625c0.014,1.763,0.006,3.525,0.006,5.385
		c3.236,0.128,6.471,0.256,9.76,0.386c0.021,0.376,0.062,0.757,0.062,1.138c-0.001,0.715-0.047,1.431-0.031,2.146
		c0.008,0.311,0.095,0.628,0.189,0.929c0.146,0.468-0.081,0.609-0.49,0.589c-2.023-0.1-4.046-0.211-6.07-0.312
		c-1.025-0.051-2.053-0.09-3.08-0.129c-0.098-0.004-0.199,0.026-0.305,0.042c0,0.836,0.002,1.649,0,2.463
		c0,1.211,0,2.422-0.008,3.631c-0.002,0.307,0.049,0.498,0.439,0.5c1.41,0.008,2.82,0.062,4.23,0.072
		c1.703,0.012,3.407-0.02,5.111,0.002c0.557,0.006,1.109,0.127,1.668,0.166c0.383,0.027,0.497,0.246,0.488,0.57
		c-0.033,1.318-0.063,2.637-0.135,3.953c-0.006,0.111-0.313,0.303-0.473,0.293c-1.503-0.086-3.001-0.244-4.505-0.307
		c-1.36-0.059-2.726-0.027-4.089-0.031C101.549,28.135,100.699,28.139,99.801,28.139"/>
	<path clip-path="url(#SVGID_2_)" d="M81.314,28.694c-0.215,0.084-0.491,0.105-0.577,0.242c-0.576,0.92-1.284,0.42-1.929,0.178
		c-1.238-0.469-2.479-0.947-3.676-1.51c-1.298-0.609-2.621-1.213-3.793-2.018c-0.842-0.578-1.532-1.424-2.147-2.254
		c-0.556-0.75-1.062-1.596-1.337-2.477c-0.437-1.395-0.722-2.846-0.941-4.293c-0.064-0.425,0.332-0.911,0.477-1.382
		c0.038-0.122-0.092-0.288-0.117-0.438c-0.02-0.128-0.05-0.307,0.017-0.385c0.107-0.127,0.29-0.189,0.393-0.385
		c-0.164,0.038-0.328,0.075-0.652,0.15c0.232-0.312,0.379-0.509,0.542-0.729c-0.102,0.008-0.207,0.017-0.328,0.025
		c-0.002-0.828,0.274-1.523,0.787-2.178c0.23-0.294,0.189-0.781,0.352-1.146c0.75-1.676,2.018-2.959,3.419-4.087
		c0.971-0.779,2.014-1.555,3.153-2.021c1.75-0.716,3.599-1.163,5.505-1.42c2.057-0.276,4.051-0.163,6.068,0.209
		c0.6,0.111,0.716,0.439,0.768,0.925c0.098,0.927,0.207,1.854,0.326,2.778c0.036,0.275,0.172,0.544,0.174,0.817
		c0.004,0.346-0.185,0.545-0.572,0.391c-2.493-0.986-5.049-0.725-7.588-0.295c-3.103,0.525-5.441,2.253-7.035,4.878
		c-0.641,1.054-0.865,2.32-0.901,3.607c-0.046,1.648,0.53,3.042,1.284,4.474c0.878,1.672,2.29,2.484,3.954,3.074
		c0.192,0.068,0.353,0.215,0.54,0.303c1.199,0.561,2.4,1.113,3.777,1.752c0-0.648-0.017-1.082,0.004-1.514c0.047-1,0.098-2,0.176-3
		c0.058-0.717,0.203-1.43,0.234-2.15c0.026-0.574,0.281-0.924,0.826-1.158c0.105,0.139,0.21,0.275,0.326,0.43
		c0.339-0.33,0.561-0.33,0.548,0.262c0.149-0.166,0.257-0.285,0.359-0.4c0.978,0.398,1.575,0.303,2.26-0.387
		c0.306-0.308,0.498-0.137,0.597,0.15c0.075,0.221,0.107,0.5,0.043,0.721c-0.566,1.965-0.49,3.979-0.475,5.986
		c0.018,2.238,0.031,4.475,0.1,6.711c0.039,1.309,0.201,2.613,0.264,3.92c0.018,0.328-0.129,0.666-0.221,1.088
		c-0.455-0.193-0.817-0.348-1.121-0.477c-0.217,0-0.402-0.012-0.588,0.002c-0.441,0.033-0.914-0.008-1.315,0.137
		c-0.433,0.158-0.519,0.057-0.495-0.326c-0.372,0.025-0.74,0.049-1.2,0.08C81.492,33.311,81.404,31.02,81.314,28.694"/>
	<path clip-path="url(#SVGID_2_)" d="M40.801,2.993c0.787,0,1.523,0.006,2.259-0.001C44.374,2.979,45.687,2.968,47,2.938
		c1.135-0.025,2.27-0.081,3.405-0.107c1.191-0.026,2.383-0.046,3.574-0.046c1.44,0,2.884,0.098,4.319,0.02
		c1.849-0.101,3.691-0.323,5.535-0.514c0.365-0.037,0.548,0.03,0.568,0.426c0.069,1.311,0.144,2.622,0.24,3.931
		c0.029,0.38-0.176,0.463-0.474,0.489c-1.217,0.105-2.433,0.263-3.652,0.303c-2.109,0.07-4.221,0.067-6.331,0.098
		c-0.266,0.004-0.531,0.028-0.821,0.044c0.158,1.266,0.317,2.479,0.46,3.693c0.456,3.868,0.908,7.736,1.357,11.605
		c0.174,1.506,0.335,3.014,0.502,4.521c0.004,0.041,0.015,0.08,0.017,0.121c0.072,1.264-0.307,1.5-1.54,1.129
		c-0.579-0.174-1.157-0.404-1.832-0.336c-0.453,0.045-0.945-0.279-1.489-0.461c0.115-0.6-0.214-1.219,0.214-1.82
		c0.081-0.113-0.187-0.445-0.246-0.689c-0.082-0.332-0.126-0.674-0.168-1.014c-0.012-0.09,0.087-0.203,0.058-0.275
		c-0.471-1.125-0.132-2.334-0.382-3.484c-0.125-0.578-0.17-1.172-0.215-1.762c-0.075-0.971-0.105-1.946-0.188-2.916
		c-0.032-0.364-0.162-0.72-0.249-1.079c-0.032-0.137-0.08-0.27-0.101-0.408c-0.101-0.651-0.224-1.301-0.284-1.957
		c-0.075-0.816-0.099-1.639-0.141-2.459c-0.039-0.776-0.073-1.554-0.109-2.336c-1.014,0-1.954-0.017-2.893,0.004
		c-1.215,0.026-2.431,0.076-3.646,0.129c-0.264,0.012-0.533,0.132-0.787,0.102c-0.175-0.021-0.456-0.199-0.472-0.333
		c-0.133-1.09-0.215-2.188-0.312-3.281C40.882,3.892,40.848,3.51,40.801,2.993"/>
	<path clip-path="url(#SVGID_2_)" d="M44.725,27.969c0,0.109-0.024,0.213,0.004,0.299c0.204,0.629,0.083,0.77-0.601,0.746
		c-1.733-0.062-3.469-0.076-5.2-0.176c-2.427-0.141-4.849-0.361-7.276-0.508c-0.755-0.047-1.518,0.035-2.278,0.055
		c-0.204,0.006-0.408,0-0.62,0c-0.543-1.133-0.435-2.324-0.494-3.506c-0.05-0.996-0.255-1.984-0.337-2.98
		c-0.083-1.018-0.059-2.041-0.156-3.055c-0.142-1.483-0.351-2.96-0.529-4.44c-0.22-1.827-0.416-3.657-0.663-5.48
		c-0.216-1.587-0.495-3.166-0.735-4.75c-0.111-0.727-0.209-1.455-0.285-2.186c-0.042-0.403,0.114-0.725,0.542-0.858
		c1.18-0.365,2.361-0.73,3.541-1.098c0.435-0.135,0.504,0.178,0.547,0.465c0.161,1.077,0.297,2.156,0.453,3.233
		c0.307,2.112,0.684,4.217,0.919,6.337c0.361,3.261,0.624,6.532,0.935,9.798c0.111,1.164,0.26,2.326,0.348,3.492
		c0.037,0.486,0.378,0.43,0.659,0.447c1.736,0.107,3.471,0.229,5.209,0.279c1.876,0.055,3.754,0.039,5.631,0.047
		c0.911,0.002,1.189,0.461,1.047,1.414c-0.072,0.479-0.067,0.902-0.416,1.309c-0.135,0.156,0.011,0.561,0.05,0.85
		c0.018,0.131,0.089,0.254,0.136,0.379C45.024,28.047,44.89,28.014,44.725,27.969"/>
	<path clip-path="url(#SVGID_2_)" fill="#FFFFFF" d="M15.484,16.832h-8.02c0.953-3.442,1.864-6.736,2.775-10.03
		c0.066,0,0.131,0.001,0.197,0.001C12.117,10.143,13.798,13.482,15.484,16.832"/>
</g>
</svg>
