<?xml version="1.0" encoding="utf-8"?>
<!-- Generator: Adobe Illustrator 16.0.0, SVG Export Plug-In . SVG Version: 6.00 Build 0)  -->
<!DOCTYPE svg PUBLIC "-//W3C//DTD SVG 1.1//EN" "http://www.w3.org/Graphics/SVG/1.1/DTD/svg11.dtd">
<svg version="1.1" id="Layer_1" xmlns="http://www.w3.org/2000/svg" xmlns:xlink="http://www.w3.org/1999/xlink" x="0px" y="0px"
	 width="226.77px" height="226.77px" viewBox="0 0 226.77 226.77" enable-background="new 0 0 226.77 226.77" xml:space="preserve">
<g>
	<defs>
		<rect id="SVGID_1_" x="6.837" y="67.853" width="213.747" height="55.558"/>
	</defs>
	<clipPath id="SVGID_2_">
		<use xlink:href="#SVGID_1_"  overflow="visible"/>
	</clipPath>
	<path clip-path="url(#SVGID_2_)" fill="#FFFFFF" d="M75.588,110.849c0.256,0.065,0.461,0.12,0.665,0.174
		c-0.072-0.192-0.183-0.381-0.211-0.579c-0.06-0.445-0.285-1.068-0.077-1.31c0.537-0.624,0.529-1.276,0.64-2.012
		c0.218-1.462-0.208-2.168-1.609-2.174c-2.886-0.012-5.773,0.013-8.657-0.071c-2.67-0.075-5.338-0.265-8.006-0.43
		c-0.433-0.026-0.958,0.061-1.014-0.688c-0.134-1.792-0.365-3.579-0.535-5.368c-0.479-5.021-0.883-10.05-1.438-15.063
		c-0.361-3.259-0.939-6.494-1.411-9.741c-0.241-1.656-0.45-3.316-0.698-4.969c-0.066-0.441-0.171-0.925-0.841-0.716
		c-1.814,0.564-3.629,1.126-5.443,1.689c-0.658,0.204-0.896,0.698-0.833,1.316c0.117,1.125,0.268,2.245,0.438,3.363
		c0.369,2.433,0.798,4.861,1.13,7.301c0.381,2.805,0.682,5.617,1.019,8.424c0.275,2.276,0.594,4.547,0.813,6.826
		c0.149,1.559,0.112,3.134,0.242,4.692c0.126,1.534,0.439,3.054,0.516,4.588c0.091,1.81-0.075,3.645,0.76,5.389
		c0.327,0,0.641,0.006,0.952-0.003c1.169-0.033,2.341-0.152,3.504-0.084c3.729,0.226,7.452,0.565,11.183,0.781
		c2.661,0.153,5.33,0.174,7.994,0.27c1.051,0.039,1.239-0.18,0.923-1.146C75.552,111.176,75.588,111.02,75.588,110.849
		 M69.558,72.456c0.071,0.793,0.123,1.38,0.175,1.967c0.151,1.684,0.275,3.37,0.48,5.045c0.026,0.206,0.458,0.482,0.725,0.512
		c0.392,0.047,0.804-0.138,1.212-0.154c1.867-0.085,3.737-0.16,5.605-0.202c1.443-0.03,2.888-0.006,4.447-0.006
		c0.055,1.204,0.107,2.399,0.167,3.591c0.065,1.261,0.1,2.524,0.216,3.781c0.094,1.007,0.282,2.007,0.438,3.008
		c0.032,0.213,0.106,0.419,0.155,0.627c0.132,0.554,0.334,1.099,0.381,1.658c0.129,1.492,0.176,2.991,0.291,4.483
		c0.069,0.904,0.138,1.823,0.33,2.706c0.384,1.771-0.138,3.63,0.588,5.358c0.044,0.108-0.108,0.288-0.091,0.424
		c0.066,0.522,0.133,1.048,0.26,1.559c0.09,0.372,0.502,0.885,0.378,1.059c-0.659,0.926-0.153,1.878-0.329,2.8
		c0.836,0.281,1.592,0.776,2.289,0.708c1.037-0.105,1.926,0.249,2.816,0.517c1.895,0.567,2.478,0.21,2.367-1.736
		c-0.003-0.062-0.02-0.123-0.026-0.186c-0.258-2.318-0.504-4.636-0.773-6.951c-0.689-5.947-1.383-11.894-2.084-17.839
		c-0.22-1.868-0.465-3.732-0.708-5.676c0.446-0.026,0.853-0.063,1.262-0.069c3.244-0.047,6.491-0.042,9.733-0.15
		c1.874-0.063,3.741-0.302,5.613-0.467c0.459-0.039,0.773-0.167,0.729-0.751c-0.149-2.011-0.265-4.029-0.368-6.042
		c-0.031-0.608-0.313-0.712-0.874-0.653c-2.834,0.291-5.666,0.635-8.51,0.788c-2.204,0.12-4.424-0.029-6.638-0.03
		c-1.831,0-3.663,0.03-5.494,0.072c-1.745,0.039-3.489,0.126-5.234,0.164c-2.019,0.045-4.037,0.063-6.056,0.084
		C71.899,72.465,70.767,72.456,69.558,72.456 M131.836,111.963c0.139,3.575,0.273,7.097,0.41,10.553
		c0.705-0.048,1.27-0.087,1.842-0.126c-0.037,0.589,0.096,0.745,0.762,0.501c0.617-0.225,1.342-0.162,2.023-0.21
		c0.283-0.021,0.568-0.003,0.902-0.003c0.465,0.199,1.023,0.436,1.721,0.732c0.141-0.648,0.369-1.165,0.344-1.672
		c-0.098-2.009-0.346-4.015-0.408-6.025c-0.104-3.438-0.127-6.876-0.152-10.317c-0.023-3.086-0.141-6.182,0.73-9.202
		c0.098-0.339,0.047-0.769-0.07-1.107c-0.146-0.441-0.443-0.703-0.912-0.231c-1.055,1.06-1.975,1.207-3.477,0.594
		c-0.158,0.179-0.322,0.361-0.549,0.616c0.014-0.91-0.324-0.91-0.844-0.402c-0.18-0.237-0.342-0.447-0.502-0.657
		c-0.838,0.356-1.229,0.895-1.27,1.776c-0.049,1.108-0.27,2.204-0.359,3.307c-0.121,1.537-0.199,3.074-0.273,4.611
		c-0.031,0.663-0.006,1.33-0.006,2.327c-2.115-0.981-3.963-1.832-5.807-2.692c-0.285-0.137-0.535-0.361-0.83-0.467
		c-2.559-0.903-4.729-2.155-6.076-4.726c-1.16-2.2-2.045-4.344-1.973-6.877c0.053-1.978,0.398-3.926,1.381-5.546
		c2.451-4.035,6.051-6.691,10.814-7.498c3.906-0.661,7.836-1.063,11.668,0.453c0.596,0.237,0.885-0.069,0.879-0.6
		c-0.004-0.421-0.213-0.832-0.268-1.257c-0.184-1.422-0.352-2.846-0.502-4.271c-0.08-0.746-0.26-1.251-1.18-1.422
		c-3.1-0.573-6.168-0.746-9.326-0.321c-2.934,0.396-5.775,1.083-8.465,2.181c-1.752,0.718-3.355,1.91-4.848,3.108
		c-2.152,1.734-4.102,3.706-5.256,6.282c-0.252,0.561-0.189,1.309-0.541,1.762c-0.789,1.006-1.213,2.075-1.211,3.348
		c0.186-0.013,0.348-0.027,0.504-0.038c-0.25,0.337-0.477,0.641-0.832,1.12c0.5-0.114,0.75-0.172,1.002-0.23
		c-0.158,0.301-0.441,0.396-0.604,0.592c-0.104,0.12-0.057,0.393-0.025,0.591c0.037,0.229,0.236,0.485,0.18,0.673
		c-0.223,0.723-0.832,1.471-0.732,2.124c0.336,2.225,0.773,4.456,1.443,6.6c0.426,1.354,1.203,2.654,2.059,3.808
		c0.945,1.275,2.006,2.576,3.297,3.465c1.805,1.237,3.836,2.165,5.834,3.101c1.84,0.865,3.748,1.602,5.65,2.321
		c0.99,0.373,2.08,1.141,2.963-0.272C131.08,112.125,131.508,112.092,131.836,111.963 M160.254,111.11c1.381,0,2.686-0.003,3.992,0
		c2.096,0.006,4.195-0.042,6.289,0.048c2.309,0.097,4.613,0.339,6.924,0.472c0.242,0.015,0.715-0.279,0.727-0.45
		c0.111-2.024,0.154-4.05,0.205-6.077c0.018-0.498-0.16-0.835-0.75-0.877c-0.857-0.061-1.707-0.246-2.562-0.255
		c-2.619-0.033-5.24,0.015-7.857-0.003c-2.17-0.016-4.336-0.1-6.506-0.111c-0.6-0.003-0.676-0.297-0.674-0.769
		c0.012-1.858,0.01-3.721,0.012-5.581c0.002-1.252,0-2.501,0-3.787c0.162-0.024,0.316-0.07,0.469-0.064
		c1.578,0.061,3.158,0.12,4.736,0.199c3.109,0.153,6.219,0.325,9.33,0.478c0.631,0.031,0.979-0.186,0.754-0.904
		c-0.146-0.463-0.279-0.951-0.293-1.429c-0.023-1.099,0.047-2.198,0.049-3.298c0-0.586-0.062-1.171-0.096-1.749
		c-5.055-0.199-10.027-0.396-15.004-0.593c0-2.858,0.014-5.568-0.008-8.278c-0.006-0.657,0.156-0.997,0.908-0.961
		c0.885,0.045,1.773-0.036,2.662-0.027c2.598,0.029,5.205-0.025,7.795,0.149c2.182,0.149,4.34,0.597,6.514,0.857
		c0.439,0.051,1.186-0.124,0.846-0.748c-0.816-1.489-0.465-3.038-0.482-4.569c-0.018-1.829,0.008-1.797-1.732-2.156
		c-3.584-0.74-7.229-0.726-10.859-0.844c-2.092-0.069-4.193,0.075-6.293,0.12c-1.041,0.023-2.09-0.018-3.127,0.079
		c-0.535,0.049-1.041,0.435-1.576,0.482c-1.562,0.138-2.352,0.788-2.244,2.439c0.203,3.139,0.262,6.289,0.301,9.435
		c0.057,4.393,0.045,8.787,0.055,13.181c0.008,2.994,0.014,5.99,0.01,8.984c-0.004,2.241-0.029,4.484-0.035,6.725
		c-0.004,0.532,0.025,1.009,0.814,0.961c1.861-0.114,3.729-0.255,5.586-0.201C159.934,112.008,160.225,111.789,160.254,111.11
		 M34.244,101.397c0.591,1.444,1.13,2.762,1.667,4.078c1.056,2.597,2.103,5.194,3.177,7.779c0.091,0.219,0.369,0.524,0.543,0.516
		c0.555-0.039,1.104-0.198,1.653-0.321c1.21-0.272,2.404-0.648,3.629-0.802c1.322-0.168,1.798-0.896,1.247-2.156
		c-1.038-2.371-2.029-4.758-3.081-7.121c-1.816-4.083-3.588-8.188-5.513-12.218c-2.449-5.126-5.028-10.192-7.558-15.279
		c-0.855-1.718-1.719-3.43-2.607-5.131c-0.488-0.934-0.909-1.003-1.845-0.428c-0.315,0.194-0.657,0.381-1.012,0.471
		c-0.525,0.132-1.087,0.125-1.609,0.264c-1.699,0.451-3.39,0.93-5.074,1.427c-0.226,0.067-0.514,0.262-0.583,0.462
		c-0.614,1.765-1.193,3.541-1.764,5.322c-0.491,1.534-0.96,3.074-1.432,4.613c-0.498,1.622-1.019,3.236-1.471,4.867
		c-1.219,4.399-2.414,8.805-3.596,13.212c-0.129,0.478-0.063,1.007-0.184,1.486c-0.396,1.576-0.892,3.129-1.239,4.714
		c-0.333,1.517-0.553,3.06-0.754,4.601c-0.032,0.245,0.293,0.759,0.475,0.768c1.779,0.111,3.341,0.883,4.943,1.516
		c1.014,0.403,1.221,0.383,1.463-0.684c0.348-1.531,0.574-3.093,0.917-4.624c0.519-2.336,1.15-4.645,1.616-6.99
		c0.169-0.84,0.49-1.067,1.304-1.035c5.307,0.21,10.617,0.382,15.926,0.573C33.792,101.286,34.103,101.373,34.244,101.397
		 M215.285,109.855c0.447-0.294,2.082-0.276,2.805,0c1.695,0.652,2.525,0.213,2.492-1.36c-0.023-1.291-0.109-2.578-0.189-3.866
		c-0.111-1.856-0.332-3.708-0.346-5.564c-0.027-3.534,0.123-7.067,0.09-10.602c-0.061-6.218-0.209-12.438-0.309-18.656
		c-0.012-0.672-0.273-1.01-0.975-0.956c-1.74,0.132-3.488,0.231-5.225,0.405c-0.756,0.077-1.307,0.491-1.312,1.347
		c-0.004,0.492,0.021,0.986,0.025,1.482c0.027,3.062,0.027,6.125,0.082,9.187c0.084,4.848,0.207,9.695,0.309,14.539
		c0.008,0.312,0.002,0.621,0.002,0.933c-1.512-2.309-2.748-4.65-4.088-6.93c-2.127-3.619-4.316-7.203-6.492-10.792
		c-1.852-3.057-3.705-6.112-5.604-9.139c-0.176-0.278-0.74-0.557-1.029-0.484c-2.084,0.539-4.146,1.156-6.205,1.778
		c-0.662,0.199-0.803,0.731-0.723,1.366c0.145,1.124,0.311,2.248,0.375,3.379c0.15,2.51,0.25,5.023,0.355,7.536
		c0.139,3.367,0.314,6.733,0.385,10.103c0.102,5.016,0.123,10.036,0.205,15.05c0.004,0.213,0.299,0.588,0.475,0.602
		c0.789,0.054,1.656,0.194,2.361-0.056c1.264-0.453,2.49-0.398,3.74-0.177c0.672,0.117,0.877-0.168,0.887-0.741
		c0.01-0.595,0.016-1.188,0-1.787c-0.119-4.002-0.25-8.007-0.369-12.01c-0.07-2.461-0.109-4.923-0.184-7.382
		c-0.029-0.968-0.123-1.932-0.186-2.899c0.109-0.025,0.215-0.055,0.322-0.084c4.943,8.561,9.887,17.118,14.834,25.685
		C212.924,108.951,214.174,108.987,215.285,109.855"/>
	<path clip-path="url(#SVGID_2_)" fill="#231F20" d="M215.285,109.855c-1.111-0.868-2.361-0.904-3.49-0.096
		c-4.947-8.566-9.891-17.124-14.834-25.685c-0.107,0.029-0.213,0.059-0.322,0.084c0.062,0.968,0.156,1.932,0.186,2.899
		c0.074,2.459,0.113,4.921,0.184,7.382c0.119,4.003,0.25,8.008,0.369,12.01c0.016,0.599,0.01,1.192,0,1.787
		c-0.01,0.573-0.215,0.858-0.887,0.741c-1.25-0.222-2.477-0.276-3.74,0.177c-0.705,0.25-1.572,0.109-2.361,0.056
		c-0.176-0.014-0.471-0.389-0.475-0.602c-0.082-5.014-0.104-10.034-0.205-15.05c-0.07-3.369-0.246-6.735-0.385-10.103
		c-0.105-2.513-0.205-5.025-0.355-7.536c-0.064-1.131-0.23-2.255-0.375-3.379c-0.08-0.635,0.061-1.167,0.723-1.366
		c2.059-0.622,4.121-1.239,6.205-1.778c0.289-0.073,0.854,0.206,1.029,0.484c1.898,3.027,3.752,6.082,5.604,9.139
		c2.176,3.589,4.365,7.173,6.492,10.792c1.34,2.279,2.576,4.621,4.088,6.93c0-0.312,0.006-0.621-0.002-0.933
		c-0.102-4.844-0.225-9.691-0.309-14.539c-0.055-3.062-0.055-6.125-0.082-9.187c-0.004-0.496-0.029-0.99-0.025-1.482
		c0.006-0.856,0.557-1.27,1.312-1.347c1.736-0.174,3.484-0.273,5.225-0.405c0.701-0.054,0.963,0.284,0.975,0.956
		c0.1,6.219,0.248,12.438,0.309,18.656c0.033,3.534-0.117,7.067-0.09,10.602c0.014,1.856,0.234,3.708,0.346,5.564
		c0.08,1.288,0.166,2.575,0.189,3.866c0.033,1.573-0.797,2.013-2.492,1.36C217.367,109.579,215.732,109.561,215.285,109.855"/>
	<path clip-path="url(#SVGID_2_)" fill="#231F20" d="M30.639,93.728c-2.591-5.148-5.175-10.283-7.759-15.417
		c-0.102-0.002-0.202-0.002-0.303-0.002c-1.401,5.064-2.801,10.126-4.266,15.419H30.639z M34.246,101.397
		c-0.144-0.023-0.452-0.111-0.764-0.12c-5.308-0.191-10.617-0.362-15.926-0.573c-0.813-0.033-1.136,0.195-1.304,1.035
		c-0.465,2.346-1.095,4.657-1.616,6.99c-0.342,1.531-0.568,3.089-0.917,4.624c-0.241,1.065-0.447,1.083-1.462,0.685
		c-1.602-0.634-3.163-1.405-4.942-1.517c-0.183-0.009-0.507-0.521-0.477-0.769c0.2-1.54,0.421-3.083,0.754-4.6
		c0.348-1.586,0.845-3.138,1.241-4.714c0.119-0.479,0.055-1.009,0.182-1.485c1.184-4.408,2.378-8.813,3.596-13.213
		c0.452-1.632,0.974-3.244,1.471-4.866c0.472-1.541,0.942-3.081,1.434-4.614c0.571-1.779,1.149-3.557,1.762-5.322
		c0.069-0.201,0.356-0.397,0.582-0.462c1.685-0.499,3.378-0.978,5.077-1.427c0.52-0.139,1.083-0.132,1.609-0.264
		c0.355-0.09,0.695-0.278,1.012-0.471c0.936-0.575,1.355-0.508,1.844,0.427c0.887,1.701,1.753,3.414,2.608,5.132
		c2.53,5.089,5.109,10.154,7.557,15.28c1.926,4.032,3.698,8.133,5.514,12.218c1.05,2.361,2.043,4.752,3.08,7.12
		c0.552,1.259,0.074,1.988-1.248,2.153c-1.224,0.156-2.419,0.531-3.628,0.805c-0.548,0.123-1.097,0.282-1.654,0.321
		c-0.172,0.009-0.452-0.297-0.543-0.516c-1.074-2.585-2.12-5.184-3.176-7.78C35.375,104.159,34.835,102.841,34.246,101.397"/>
</g>
<g>
	<defs>
		<rect id="SVGID_3_" x="-11.231" y="43.701" width="240" height="97.999"/>
	</defs>
	<clipPath id="SVGID_4_">
		<use xlink:href="#SVGID_3_"  overflow="visible"/>
	</clipPath>
	<path clip-path="url(#SVGID_4_)" fill="#231F20" d="M160.254,111.11c-0.027,0.678-0.318,0.898-1.125,0.877
		c-1.857-0.054-3.723,0.087-5.582,0.201c-0.791,0.048-0.818-0.429-0.818-0.961c0.006-2.24,0.031-4.483,0.037-6.725
		c0.004-2.994-0.004-5.99-0.01-8.984c-0.01-4.395,0-8.788-0.057-13.181c-0.037-3.147-0.096-6.296-0.299-9.435
		c-0.107-1.651,0.684-2.302,2.248-2.44c0.535-0.046,1.039-0.433,1.572-0.481c1.037-0.097,2.084-0.056,3.129-0.079
		c2.098-0.045,4.197-0.189,6.295-0.12c3.629,0.118,7.273,0.104,10.857,0.844c1.738,0.359,1.711,0.327,1.732,2.156
		c0.016,1.531-0.332,3.08,0.48,4.569c0.34,0.623-0.408,0.799-0.846,0.748c-2.174-0.26-4.332-0.708-6.512-0.857
		c-2.592-0.174-5.197-0.12-7.797-0.149c-0.887-0.009-1.779,0.072-2.66,0.027c-0.754-0.036-0.916,0.304-0.91,0.961
		c0.02,2.71,0.008,5.419,0.008,8.278c4.977,0.196,9.947,0.394,15.004,0.593c0.033,0.578,0.098,1.163,0.098,1.749
		c-0.002,1.1-0.072,2.199-0.051,3.298c0.014,0.478,0.146,0.966,0.293,1.429c0.225,0.718-0.125,0.936-0.754,0.904
		c-3.111-0.152-6.219-0.324-9.332-0.479c-1.576-0.078-3.156-0.138-4.734-0.198c-0.15-0.006-0.307,0.04-0.469,0.064
		c0,1.286,0.002,2.535,0,3.787c0,1.86,0,3.723-0.012,5.581c-0.002,0.472,0.074,0.766,0.676,0.769
		c2.166,0.012,4.334,0.096,6.504,0.111c2.617,0.018,5.236-0.03,7.857,0.003c0.855,0.009,1.703,0.194,2.564,0.255
		c0.588,0.042,0.764,0.379,0.75,0.877c-0.053,2.027-0.098,4.053-0.209,6.077c-0.01,0.171-0.48,0.465-0.725,0.45
		c-2.311-0.133-4.613-0.375-6.926-0.472c-2.092-0.09-4.191-0.042-6.285-0.048C162.941,111.104,161.635,111.11,160.254,111.11"/>
	<path clip-path="url(#SVGID_4_)" fill="#231F20" d="M131.836,111.962c-0.33,0.129-0.754,0.162-0.887,0.372
		c-0.885,1.414-1.975,0.646-2.965,0.273c-1.902-0.72-3.811-1.456-5.65-2.32c-1.996-0.937-4.029-1.865-5.832-3.102
		c-1.293-0.89-2.354-2.189-3.301-3.465c-0.855-1.153-1.633-2.453-2.055-3.808c-0.672-2.144-1.109-4.374-1.447-6.6
		c-0.098-0.653,0.51-1.4,0.732-2.124c0.061-0.188-0.141-0.443-0.178-0.673c-0.031-0.196-0.078-0.472,0.025-0.592
		c0.164-0.194,0.445-0.291,0.604-0.592c-0.252,0.06-0.504,0.116-1.002,0.232c0.355-0.481,0.582-0.782,0.834-1.122
		c-0.158,0.012-0.318,0.025-0.506,0.039c-0.002-1.273,0.422-2.342,1.211-3.348c0.354-0.451,0.291-1.2,0.541-1.761
		c1.152-2.576,3.102-4.549,5.256-6.283c1.494-1.198,3.096-2.39,4.848-3.106c2.691-1.1,5.531-1.788,8.461-2.183
		c3.162-0.425,6.229-0.25,9.33,0.322c0.922,0.171,1.102,0.675,1.18,1.421c0.15,1.425,0.318,2.85,0.504,4.271
		c0.055,0.424,0.262,0.836,0.264,1.257c0.008,0.531-0.281,0.837-0.879,0.6c-3.832-1.516-7.76-1.114-11.664-0.453
		c-4.768,0.807-8.365,3.463-10.814,7.498c-0.984,1.62-1.33,3.567-1.385,5.547c-0.072,2.532,0.814,4.677,1.975,6.878
		c1.35,2.569,3.52,3.818,6.076,4.725c0.297,0.106,0.541,0.331,0.83,0.466c1.844,0.861,3.691,1.711,5.807,2.693
		c0-0.997-0.023-1.663,0.008-2.327c0.072-1.537,0.148-3.074,0.27-4.612c0.088-1.101,0.312-2.196,0.359-3.305
		c0.041-0.883,0.434-1.42,1.271-1.781c0.162,0.213,0.322,0.424,0.502,0.661c0.52-0.508,0.859-0.508,0.842,0.402
		c0.229-0.255,0.393-0.438,0.551-0.615c1.502,0.612,2.422,0.465,3.475-0.595c0.471-0.474,0.766-0.21,0.916,0.23
		c0.117,0.34,0.166,0.77,0.066,1.108c-0.869,3.021-0.752,6.116-0.729,9.203c0.025,3.439,0.049,6.878,0.152,10.315
		c0.061,2.013,0.311,4.018,0.406,6.026c0.027,0.504-0.199,1.024-0.34,1.672c-0.699-0.297-1.256-0.534-1.725-0.731
		c-0.332,0-0.617-0.019-0.902,0.003c-0.678,0.051-1.406-0.013-2.021,0.21c-0.666,0.242-0.799,0.087-0.762-0.502
		c-0.572,0.039-1.137,0.074-1.844,0.124C132.109,119.061,131.975,115.539,131.836,111.962"/>
</g>
<g>
	<defs>
		<rect id="SVGID_5_" x="6.837" y="67.853" width="213.747" height="55.558"/>
	</defs>
	<clipPath id="SVGID_6_">
		<use xlink:href="#SVGID_5_"  overflow="visible"/>
	</clipPath>
	<path clip-path="url(#SVGID_6_)" fill="#231F20" d="M69.558,72.455c1.21,0,2.342,0.009,3.473-0.001
		c2.018-0.02,4.037-0.038,6.055-0.083c1.745-0.039,3.49-0.125,5.234-0.165c1.832-0.041,3.664-0.071,5.495-0.071
		c2.213,0,4.433,0.15,6.639,0.03c2.842-0.154,5.674-0.497,8.509-0.789c0.561-0.057,0.843,0.046,0.873,0.654
		c0.106,2.015,0.222,4.031,0.369,6.043c0.044,0.584-0.271,0.711-0.729,0.752c-1.871,0.162-3.74,0.403-5.614,0.465
		c-3.242,0.108-6.489,0.104-9.732,0.15c-0.409,0.006-0.817,0.044-1.263,0.068c0.243,1.945,0.488,3.811,0.707,5.677
		c0.701,5.947,1.397,11.893,2.087,17.841c0.267,2.314,0.515,4.633,0.772,6.95c0.006,0.063,0.022,0.123,0.026,0.187
		c0.11,1.942-0.472,2.306-2.367,1.735c-0.891-0.268-1.779-0.621-2.817-0.517c-0.696,0.069-1.453-0.43-2.289-0.709
		c0.177-0.922-0.329-1.873,0.329-2.798c0.124-0.174-0.288-0.685-0.378-1.06c-0.126-0.511-0.194-1.036-0.258-1.559
		c-0.019-0.138,0.134-0.312,0.088-0.424c-0.723-1.729-0.202-3.588-0.586-5.356c-0.193-0.889-0.262-1.801-0.331-2.708
		c-0.115-1.491-0.161-2.99-0.289-4.481c-0.049-0.561-0.249-1.106-0.383-1.659c-0.049-0.21-0.123-0.414-0.155-0.627
		c-0.155-1.002-0.344-2-0.437-3.009c-0.115-1.255-0.151-2.52-0.216-3.78c-0.06-1.193-0.113-2.388-0.168-3.591
		c-1.558,0-3.004-0.025-4.447,0.006c-1.868,0.041-3.737,0.117-5.605,0.198c-0.406,0.019-0.819,0.203-1.209,0.157
		c-0.27-0.032-0.702-0.307-0.726-0.512c-0.204-1.676-0.33-3.363-0.48-5.044C69.683,73.835,69.629,73.249,69.558,72.455"/>
	<path clip-path="url(#SVGID_6_)" fill="#231F20" d="M75.589,110.849c0,0.168-0.037,0.327,0.006,0.459
		c0.314,0.967,0.128,1.183-0.924,1.146c-2.664-0.096-5.332-0.116-7.993-0.27c-3.731-0.216-7.454-0.555-11.186-0.781
		c-1.16-0.072-2.333,0.054-3.501,0.084c-0.314,0.009-0.628,0-0.954,0c-0.834-1.741-0.668-3.572-0.759-5.389
		c-0.077-1.531-0.392-3.05-0.518-4.582c-0.128-1.564-0.091-3.137-0.24-4.695c-0.218-2.28-0.539-4.551-0.813-6.826
		c-0.338-2.808-0.64-5.622-1.019-8.424c-0.332-2.44-0.761-4.867-1.13-7.302c-0.171-1.117-0.321-2.237-0.438-3.36
		c-0.064-0.62,0.175-1.114,0.833-1.32c1.814-0.561,3.63-1.123,5.444-1.687c0.669-0.207,0.774,0.273,0.841,0.715
		c0.247,1.655,0.456,3.314,0.696,4.97c0.471,3.247,1.051,6.482,1.413,9.741c0.554,5.014,0.959,10.042,1.437,15.063
		c0.17,1.789,0.399,3.576,0.534,5.368c0.058,0.748,0.582,0.661,1.014,0.688c2.668,0.165,5.336,0.352,8.007,0.429
		c2.884,0.084,5.771,0.061,8.656,0.072c1.401,0.003,1.828,0.709,1.61,2.174c-0.111,0.735-0.103,1.388-0.639,2.013
		c-0.208,0.239,0.016,0.86,0.076,1.306c0.028,0.201,0.137,0.39,0.209,0.582C76.048,110.969,75.844,110.917,75.589,110.849"/>
</g>
<g>
	<defs>
		<rect id="SVGID_7_" x="-11.231" y="43.701" width="240" height="97.999"/>
	</defs>
	<clipPath id="SVGID_8_">
		<use xlink:href="#SVGID_7_"  overflow="visible"/>
	</clipPath>
	<path clip-path="url(#SVGID_8_)" fill="#FFFFFF" d="M30.639,93.728H18.31c1.465-5.292,2.866-10.354,4.267-15.419
		c0.101,0,0.201,0.002,0.302,0.002C25.464,83.446,28.048,88.58,30.639,93.728"/>
</g>
<text transform="matrix(1 0 0 1 3.769 141.0737)"><tspan x="0" y="0" font-family="'AkzidenzGroteskBQ-Bold'" font-size="16">T</tspan><tspan x="9.696" y="0" font-family="'AkzidenzGroteskBQ-Bold'" font-size="16" letter-spacing="1">og</tspan><tspan x="32.56" y="0" font-family="'AkzidenzGroteskBQ-Bold'" font-size="16" letter-spacing="1">e</tspan><tspan x="43.472" y="0" font-family="'AkzidenzGroteskBQ-Bold'" font-size="16" letter-spacing="1">th</tspan><tspan x="62" y="0" font-family="'AkzidenzGroteskBQ-Bold'" font-size="16" letter-spacing="1">er</tspan><tspan x="80.495" y="0" font-family="'AkzidenzGroteskBQ-Bold'" font-size="16"> </tspan></text>
<text transform="matrix(1 0 0 1 90.5864 141.0737)"><tspan x="0" y="0" fill="#FF4600" font-family="'AkzidenzGroteskBQ-Bold'" font-size="16" letter-spacing="1">w</tspan><tspan x="14.271" y="0" fill="#FF4600" font-family="'AkzidenzGroteskBQ-Bold'" font-size="16" letter-spacing="1">e</tspan><tspan x="25.183" y="0" fill="#FF4600" font-family="'AkzidenzGroteskBQ-Bold'" font-size="16" letter-spacing="1">&apos;r</tspan><tspan x="36.88" y="0" fill="#FF4600" font-family="'AkzidenzGroteskBQ-Bold'" font-size="16" letter-spacing="1">e</tspan><tspan x="47.791" y="0" fill="#FF4600" font-family="'AkzidenzGroteskBQ-Bold'" font-size="16" letter-spacing="1"> st</tspan><tspan x="71.263" y="0" fill="#FF4600" font-family="'AkzidenzGroteskBQ-Bold'" font-size="16" letter-spacing="1">ro</tspan><tspan x="90.431" y="0" fill="#FF4600" font-family="'AkzidenzGroteskBQ-Bold'" font-size="16" letter-spacing="1">ng</tspan><tspan x="112.958" y="0" fill="#FF4600" font-family="'AkzidenzGroteskBQ-Bold'" font-size="16" letter-spacing="1">e</tspan><tspan x="123.871" y="0" fill="#FF4600" font-family="'AkzidenzGroteskBQ-Bold'" font-size="16">r</tspan></text>
</svg>
