<?xml version="1.0" encoding="UTF-8" standalone="no"?>
<!-- Generator: Adobe Illustrator 16.0.0, SVG Export Plug-In . SVG Version: 6.00 Build 0)  -->

<svg
   xmlns:dc="http://purl.org/dc/elements/1.1/"
   xmlns:cc="http://creativecommons.org/ns#"
   xmlns:rdf="http://www.w3.org/1999/02/22-rdf-syntax-ns#"
   xmlns:svg="http://www.w3.org/2000/svg"
   xmlns="http://www.w3.org/2000/svg"
   xmlns:sodipodi="http://sodipodi.sourceforge.net/DTD/sodipodi-0.dtd"
   xmlns:inkscape="http://www.inkscape.org/namespaces/inkscape"
   version="1.1"
   id="Layer_1"
   x="0px"
   y="0px"
   width="128.7"
   height="128.355"
   viewBox="0 0 128.7 128.35499"
   enable-background="new 0 0 226.77 226.77"
   xml:space="preserve"
   inkscape:version="0.91 r13725"
   sodipodi:docname="camera.svg"><metadata
     id="metadata31"><rdf:RDF><cc:Work
         rdf:about=""><dc:format>image/svg+xml</dc:format><dc:type
           rdf:resource="http://purl.org/dc/dcmitype/StillImage" /><dc:title></dc:title></cc:Work></rdf:RDF></metadata><defs
     id="defs29" /><sodipodi:namedview
     pagecolor="#ffffff"
     bordercolor="#666666"
     borderopacity="1"
     objecttolerance="10"
     gridtolerance="10"
     guidetolerance="10"
     inkscape:pageopacity="0"
     inkscape:pageshadow="2"
     inkscape:window-width="1366"
     inkscape:window-height="768"
     id="namedview27"
     showgrid="false"
     fit-margin-top="0.1"
     fit-margin-left="0.4"
     fit-margin-right="0.3"
     fit-margin-bottom="0.3"
     inkscape:zoom="1.040702"
     inkscape:cx="-115.42095"
     inkscape:cy="65.684975"
     inkscape:window-x="0"
     inkscape:window-y="0"
     inkscape:window-maximized="0"
     inkscape:current-layer="Layer_1" /><g
     id="g3"
     transform="translate(-49.6,-50.715)"><path
       d="m 178,73.77 c 0,27.333 0,54.667 0,82 -2.318,0.591 -4.636,1.689 -6.957,1.695 -37.898,0.107 -75.799,0.091 -113.698,0.043 -2.449,-0.003 -4.896,-0.481 -7.345,-0.738 0,-24.333 0,-48.667 0,-73 1.675,-0.523 3.35,-1.047 5.094,-1.592 0.048,-0.96 0.113,-1.778 0.127,-2.598 0.138,-7.577 0.135,-7.577 7.919,-7.582 0.665,0 1.329,0 1.994,0 10.708,0 10.708,0 12.098,10.406 1.498,0 3.016,0 4.637,0 0.054,-1.166 0.114,-1.983 0.126,-2.801 0.112,-7.6 0.11,-7.604 7.8,-7.604 27.25,-0.002 54.5,-0.041 81.75,0.076 2.154,0.009 4.304,1.104 6.455,1.695 z M 55.473,151.659 c 39.326,0 78.06,0 116.967,0 0,-17.73 0,-35.119 0,-52.558 -13.864,0 -27.391,0 -41.177,0 11.875,14.905 12.408,28.746 1.777,39.618 -9.275,9.486 -24.021,10.767 -34.662,2.943 -7.026,-5.167 -10.703,-12.242 -11.043,-20.885 -0.337,-8.534 3.533,-15.501 9.655,-21.632 -14.295,0 -27.852,0 -41.518,0 10e-4,17.638 10e-4,34.897 10e-4,52.514 z m 0.074,-58.523 c 39.268,0 77.987,0 116.919,0 0,-5.259 0,-10.16 0,-15.178 -28.495,0 -56.68,0 -85.028,0 -0.089,1.213 -0.182,2.023 -0.203,2.835 -0.193,7.195 -0.189,7.197 -7.542,7.2 -7.953,0.003 -15.906,0.001 -24.146,0.001 0,1.983 0,3.396 0,5.142 z m 79.672,27.057 c 0.025,-11.798 -9.31,-21.315 -21.008,-21.417 -11.928,-0.104 -21.487,9.482 -21.429,21.49 0.057,11.74 9.58,21.25 21.253,21.224 11.69,-0.028 21.156,-9.546 21.184,-21.297 z M 70.924,77.925 c -3.488,0 -6.688,0 -10.213,0 0.173,1.804 0.307,3.195 0.439,4.573 3.477,0 6.562,0 9.774,0 0,-1.667 0,-3.062 0,-4.573 z"
       id="path5"
       inkscape:connector-curvature="0" /><path
       d="m 178,73.77 c -2.151,-0.591 -4.301,-1.686 -6.455,-1.694 -27.25,-0.117 -54.5,-0.078 -81.75,-0.076 -7.69,0 -7.688,0.005 -7.8,7.604 -0.012,0.817 -0.072,1.635 -0.126,2.801 -1.621,0 -3.139,0 -4.637,0 -1.39,-10.406 -1.39,-10.406 -12.098,-10.406 -0.665,0 -1.33,0 -1.994,0 -7.784,0.005 -7.781,0.005 -7.919,7.582 -0.015,0.819 -0.079,1.638 -0.127,2.598 -1.744,0.544 -3.419,1.068 -5.094,1.591 0,-10.97 0,-21.94 0,-32.955 42.667,0 85.334,0 128,0 0,7.663 0,15.31 0,22.955 z"
       id="path7"
       inkscape:connector-curvature="0"
       style="clip-rule:evenodd;fill:#ffffff;fill-rule:evenodd" /><path
       d="m 50,156.77 c 2.448,0.257 4.896,0.735 7.345,0.738 37.899,0.048 75.8,0.064 113.698,-0.043 2.321,-0.006 4.639,-1.104 6.957,-1.695 0,7.667 0,15.333 0,23 -42.666,0 -85.333,0 -128,0 0,-7.333 0,-14.667 0,-22 z"
       id="path9"
       inkscape:connector-curvature="0"
       style="clip-rule:evenodd;fill:#ffffff;fill-rule:evenodd" /><path
       d="m 55.473,151.659 c 0,-17.616 0,-34.876 0,-52.513 13.666,0 27.223,0 41.518,0 -6.122,6.131 -9.992,13.098 -9.655,21.632 0.34,8.643 4.018,15.718 11.043,20.885 10.64,7.823 25.386,6.543 34.662,-2.943 10.631,-10.872 10.098,-24.713 -1.777,-39.618 13.786,0 27.312,0 41.177,0 0,17.438 0,34.827 0,52.558 -38.908,-0.001 -77.642,-0.001 -116.968,-0.001 z"
       id="path11"
       inkscape:connector-curvature="0"
       style="clip-rule:evenodd;fill:#ffffff;fill-rule:evenodd" /><path
       d="m 55.547,93.136 c 0,-1.746 0,-3.159 0,-5.142 8.24,0 16.193,0.002 24.146,-0.001 7.353,-0.003 7.349,-0.005 7.542,-7.2 0.021,-0.812 0.114,-1.622 0.203,-2.835 28.348,0 56.533,0 85.028,0 0,5.018 0,9.919 0,15.178 -38.932,0 -77.651,0 -116.919,0 z m 101.348,-5.168 c 1.483,0 3.056,0.308 4.421,-0.093 1.187,-0.348 2.14,-1.494 3.195,-2.288 -0.947,-0.93 -1.821,-2.55 -2.855,-2.66 -3.257,-0.347 -6.597,-0.34 -9.856,-0.003 -1.043,0.108 -1.937,1.67 -2.898,2.567 1.018,0.825 1.924,2.064 3.08,2.375 1.536,0.414 3.266,0.102 4.913,0.102 z"
       id="path13"
       inkscape:connector-curvature="0"
       style="clip-rule:evenodd;fill:#ffffff;fill-rule:evenodd" /><path
       d="m 135.219,120.193 c -0.027,11.751 -9.494,21.27 -21.184,21.297 -11.673,0.026 -21.197,-9.483 -21.253,-21.224 -0.058,-12.008 9.501,-21.594 21.429,-21.49 11.698,0.101 21.033,9.619 21.008,21.417 z m -20.994,15.784 c 8.778,-0.094 15.819,-7.234 15.76,-15.982 -0.059,-8.687 -7.291,-15.899 -15.96,-15.917 -8.852,-0.018 -16.19,7.484 -16.008,16.365 0.179,8.737 7.37,15.629 16.208,15.534 z"
       id="path15"
       inkscape:connector-curvature="0"
       style="clip-rule:evenodd;fill:#ffffff;fill-rule:evenodd" /><path
       d="m 70.924,77.925 c 0,1.511 0,2.905 0,4.573 -3.212,0 -6.297,0 -9.774,0 -0.132,-1.378 -0.266,-2.77 -0.439,-4.573 3.524,0 6.725,0 10.213,0 z"
       id="path17"
       inkscape:connector-curvature="0"
       style="clip-rule:evenodd;fill:#ffffff;fill-rule:evenodd" /><path
       d="m 156.895,87.968 c -1.646,0 -3.377,0.312 -4.914,-0.102 -1.156,-0.311 -2.062,-1.55 -3.08,-2.375 0.962,-0.897 1.855,-2.459 2.898,-2.567 3.26,-0.337 6.6,-0.344 9.856,0.003 1.034,0.11 1.908,1.73 2.855,2.66 -1.056,0.794 -2.009,1.94 -3.195,2.288 -1.365,0.401 -2.937,0.093 -4.42,0.093 z"
       id="path19"
       inkscape:connector-curvature="0"
       style="clip-rule:evenodd;fill-rule:evenodd" /><path
       d="m 114.196,87.968 c -1.646,0 -3.377,0.312 -4.914,-0.102 -1.156,-0.311 -2.062,-1.55 -3.08,-2.375 0.962,-0.897 1.855,-2.459 2.898,-2.567 3.26,-0.337 6.6,-0.344 9.856,0.003 1.034,0.11 1.908,1.73 2.855,2.66 -1.056,0.794 -2.009,1.94 -3.195,2.288 -1.364,0.401 -2.936,0.093 -4.42,0.093 z"
       id="path21"
       inkscape:connector-curvature="0"
       style="clip-rule:evenodd;fill-rule:evenodd" /><path
       d="m 114.225,135.977 c -8.838,0.095 -16.028,-6.797 -16.208,-15.534 -0.182,-8.881 7.156,-16.383 16.008,-16.365 8.669,0.018 15.901,7.23 15.96,15.917 0.059,8.748 -6.982,15.888 -15.76,15.982 z m 0.002,-26.413 c -5.999,-0.104 -10.948,4.687 -10.924,10.575 0.023,5.668 4.778,10.489 10.468,10.613 5.89,0.129 10.921,-4.781 10.918,-10.656 -0.002,-5.709 -4.694,-10.432 -10.462,-10.532 z"
       id="path23"
       inkscape:connector-curvature="0"
       style="clip-rule:evenodd;fill-rule:evenodd" /><path
       d="m 114.227,109.564 c 5.769,0.1 10.46,4.823 10.462,10.532 0.003,5.875 -5.028,10.785 -10.918,10.656 -5.69,-0.124 -10.445,-4.945 -10.468,-10.613 -0.025,-5.889 4.925,-10.68 10.924,-10.575 z"
       id="path25"
       inkscape:connector-curvature="0"
       style="clip-rule:evenodd;fill:#ffffff;fill-rule:evenodd" /></g></svg>