<?xml version="1.0" encoding="UTF-8" standalone="no"?>
<!-- Generator: Adobe Illustrator 16.0.0, SVG Export Plug-In . SVG Version: 6.00 Build 0)  -->

<svg
   xmlns:dc="http://purl.org/dc/elements/1.1/"
   xmlns:cc="http://creativecommons.org/ns#"
   xmlns:rdf="http://www.w3.org/1999/02/22-rdf-syntax-ns#"
   xmlns:svg="http://www.w3.org/2000/svg"
   xmlns="http://www.w3.org/2000/svg"
   xmlns:xlink="http://www.w3.org/1999/xlink"
   xmlns:sodipodi="http://sodipodi.sourceforge.net/DTD/sodipodi-0.dtd"
   xmlns:inkscape="http://www.inkscape.org/namespaces/inkscape"
   version="1.1"
   id="Layer_1"
   x="0px"
   y="0px"
   width="44.593006"
   height="74.677559"
   viewBox="0 0 44.593005 74.677558"
   enable-background="new 0 0 226.77 226.77"
   xml:space="preserve"
   inkscape:version="0.91 r13725"
   sodipodi:docname="hug.svg"><metadata
     id="metadata27"><rdf:RDF><cc:Work
         rdf:about=""><dc:format>image/svg+xml</dc:format><dc:type
           rdf:resource="http://purl.org/dc/dcmitype/StillImage" /><dc:title></dc:title></cc:Work></rdf:RDF></metadata><defs
     id="defs25" /><sodipodi:namedview
     pagecolor="#ffffff"
     bordercolor="#666666"
     borderopacity="1"
     objecttolerance="10"
     gridtolerance="10"
     guidetolerance="10"
     inkscape:pageopacity="0"
     inkscape:pageshadow="2"
     inkscape:window-width="1366"
     inkscape:window-height="768"
     id="namedview23"
     showgrid="false"
     fit-margin-top="0.5"
     fit-margin-left="0.9"
     fit-margin-right="0"
     fit-margin-bottom="0"
     inkscape:zoom="1.040702"
     inkscape:cx="-68.330062"
     inkscape:cy="-29.935863"
     inkscape:window-x="0"
     inkscape:window-y="0"
     inkscape:window-maximized="0"
     inkscape:current-layer="Layer_1" /><g
     id="g13"
     transform="translate(-2.5091078,-8.7715765)"><defs
       id="defs15"><rect
         id="SVGID_1_"
         x="-2"
         y="9.2709999"
         width="246.576"
         height="188.49899" /></defs><clipPath
       id="SVGID_2_"><use
         xlink:href="#SVGID_1_"
         overflow="visible"
         id="use19"
         style="overflow:visible"
         x="0"
         y="0"
         width="100%"
         height="100%" /></clipPath><path
       clip-path="url(#SVGID_2_)"
       d="m 16.627,81.545 c -1.231,0 -2.365,0.011 -3.498,-0.01 -0.223,-0.004 -0.444,-0.134 -0.705,-0.219 0.158,-0.265 0.339,-0.253 0.507,-0.243 0.817,0.049 1.634,0.088 2.448,0.168 0.494,0.048 0.611,-0.015 0.665,-0.53 0.008,-0.068 0.022,-0.135 0.039,-0.23 0.136,0.011 0.248,0.02 0.364,0.03 0.058,0.335 0.11,0.635 0.18,1.034 m 3.883,-3.274 c 0.287,0.094 0.495,0.163 0.717,0.235 0.023,0.321 0.065,0.614 0.059,0.906 -0.015,0.729 0.249,1.06 0.943,1.159 0.414,0.059 0.827,0.141 1.241,0.207 0.271,0.042 0.275,0.215 0.221,0.471 -0.208,0.048 -0.408,0.116 -0.612,0.138 -0.721,0.076 -1.432,0.016 -2.131,-0.192 -0.549,-0.163 -0.643,-0.257 -0.617,-0.874 0.029,-0.656 0.113,-1.31 0.179,-2.05 M 40.926,43.596 c -0.136,-0.372 -0.35,-0.627 -0.774,-0.632 0.377,-0.283 0.753,-0.567 1.164,-0.876 0.726,0.692 1.433,1.364 2.125,2.023 -0.188,0.74 -0.181,1.496 -0.786,1.95 -0.197,-0.194 -0.345,-0.443 -0.548,-0.51 -0.192,-0.064 -0.442,0.06 -0.716,0.111 0.246,-0.422 0.482,-0.806 0.697,-1.203 0.15,-0.28 0.054,-0.806 -0.179,-1.005 -0.255,-0.216 -0.52,-0.15 -0.776,0.017 -0.058,0.037 -0.118,0.071 -0.207,0.125 m -11.94,35.717 c 0.57,0.265 1.182,-0.005 1.674,0.329 l 0,2.486 c -0.292,0 -0.534,-0.005 -0.777,0.001 -0.751,0.019 -1.504,0.013 -2.253,0.072 -0.481,0.039 -1.069,-0.31 -1.246,-0.85 0.054,-0.035 0.111,-0.106 0.167,-0.106 0.56,-0.003 1.126,-0.049 1.675,0.034 0.31,0.047 0.429,-0.048 0.513,-0.292 0.058,-0.169 0.078,-0.353 0.103,-0.533 0.05,-0.358 0.091,-0.719 0.144,-1.141 m 5.424,1.116 c 0.587,0 1.178,0.053 1.758,-0.012 0.972,-0.11 1.943,-0.145 2.918,-0.114 0.612,0.019 0.614,0.033 0.707,0.669 0.015,0.101 0.002,0.206 0.002,0.318 -0.835,0.14 -1.642,0.283 -2.45,0.408 -0.519,0.081 -1.054,0.079 -1.557,0.217 -0.502,0.137 -0.92,0.027 -1.378,-0.206 l 0,-1.28 z M 10.187,47.851 C 10.126,47.959 10.051,48.09 9.98,48.215 9.914,48.19 9.869,48.187 9.853,48.164 9.387,47.43 8.929,46.69 8.7,45.83 8.669,45.715 8.708,45.526 8.785,45.442 c 0.636,-0.692 1.16,-1.535 2.162,-1.817 0.284,0.177 0.648,0.315 0.872,0.707 -0.528,-0.114 -0.621,-0.03 -0.771,0.498 -0.081,0.281 -0.051,0.494 0.139,0.702 0.12,0.132 0.223,0.283 0.327,0.43 0.244,0.345 0.482,0.693 0.723,1.04 -0.408,-0.239 -0.764,-0.511 -1.128,-0.773 -0.248,-0.179 -0.349,-0.127 -0.449,0.171 -0.159,0.469 -0.093,0.902 0.147,1.317 m 11.609,30.841 c 0.173,0.009 0.309,0.028 0.445,0.022 0.34,-0.017 0.81,-0.351 0.814,-0.668 0.004,-0.541 0.176,-1.041 0.239,-1.563 0.061,-0.49 0.048,-0.991 0.047,-1.488 -0.002,-1.397 -0.022,-2.795 -0.021,-4.193 0.002,-3.221 0.012,-6.442 0.022,-9.662 0.001,-0.516 -0.03,-1.037 0.032,-1.545 0.205,-1.696 0.412,-3.39 0.394,-5.104 -0.001,-0.105 0.022,-0.211 0.037,-0.346 l 1.914,0 c 0,0.737 0.031,1.45 -0.008,2.16 -0.048,0.879 -0.218,1.754 -0.224,2.633 -0.022,3.143 -0.084,6.287 0.115,9.43 0.102,1.594 0.117,3.196 0.142,4.794 0.022,1.491 0.006,2.983 0.005,4.474 0,0.421 0.153,0.694 0.541,0.897 0.886,0.46 0.802,0.333 0.723,1.311 -0.01,0.124 -0.044,0.245 -0.075,0.407 -0.912,-0.006 -1.871,-0.206 -2.525,0.806 -0.041,-0.212 -0.068,-0.351 -0.096,-0.488 -0.06,-0.288 -0.206,-0.523 -0.471,-0.619 -0.391,-0.141 -0.754,-0.369 -1.202,-0.343 -0.265,0.016 -0.537,-0.1 -0.806,-0.157 -0.015,-0.163 -0.032,-0.29 -0.04,-0.418 -0.007,-0.092 -0.002,-0.184 -0.002,-0.34 M 22.263,16.471 c -0.105,0.79 -0.189,1.664 -0.349,2.523 -0.092,0.495 -0.183,1.017 -0.533,1.418 -0.224,0.256 -0.431,0.529 -0.666,0.774 -0.1,0.104 -0.243,0.196 -0.38,0.225 -0.854,0.185 -1.714,0.341 -2.568,0.526 -0.665,0.145 -1.32,0.34 -1.988,0.47 -0.294,0.057 -0.616,0.124 -0.889,-0.149 -0.441,-0.442 -0.722,-0.971 -0.922,-1.575 -0.433,-1.309 -0.796,-2.619 -0.587,-4.031 0.219,-1.481 0.838,-2.662 2.158,-3.356 0.234,-0.124 0.448,-0.288 0.685,-0.405 0.314,-0.155 0.637,-0.295 0.964,-0.416 0.263,-0.096 0.535,-0.168 0.809,-0.222 0.304,-0.06 0.615,-0.123 0.922,-0.119 0.293,0.003 0.587,0.077 0.876,0.144 0.233,0.055 0.493,0.095 0.68,0.232 0.385,0.283 0.76,0.598 1.08,0.957 0.218,0.245 0.423,0.569 0.483,0.889 0.125,0.663 0.15,1.347 0.225,2.115 m -2.302,60.642 c -0.042,-0.797 -0.111,-1.549 -0.072,-2.326 0.063,-1.247 -0.012,-2.503 -0.057,-3.754 -0.033,-0.919 -0.127,-1.836 -0.168,-2.755 -0.057,-1.305 -0.096,-2.611 -0.136,-3.916 -0.04,-1.305 -0.086,-2.61 -0.103,-3.915 -0.025,-1.841 -0.026,-3.682 -0.036,-5.523 -0.003,-0.383 0,-0.766 0,-1.197 1.299,0.218 2.53,-0.185 3.815,0.042 -0.031,0.883 -0.029,1.729 -0.096,2.57 -0.135,1.703 -0.359,3.393 -0.355,5.112 0.004,2.595 0.077,5.19 -0.083,7.786 -0.098,1.577 -0.026,3.165 -0.039,4.748 -0.005,0.663 -0.001,1.329 -0.059,1.987 -0.029,0.329 -0.132,0.636 0.051,0.956 0.049,0.087 -0.008,0.24 -0.02,0.424 -0.881,-0.08 -1.728,-0.157 -2.642,-0.239 M 35.733,15.729 c 0.008,0.796 -0.031,1.408 -0.281,2 -0.339,0.804 -0.607,1.64 -0.95,2.44 -0.139,0.326 -0.379,0.612 -0.608,0.884 -0.088,0.104 -0.277,0.176 -0.413,0.164 -1.217,-0.109 -2.431,-0.267 -3.65,-0.351 -0.589,-0.041 -1.186,0.048 -1.778,0.078 -0.204,0.01 -0.417,0.094 -0.569,-0.146 -0.674,-1.063 -1.036,-2.24 -1.132,-3.503 -0.135,-1.78 0.416,-3.369 1.321,-4.835 0.216,-0.349 0.506,-0.67 0.821,-0.924 0.499,-0.402 1.04,-0.78 1.718,-0.708 0.705,0.074 1.426,0.075 2.09,0.407 0.252,0.126 0.514,0.239 0.782,0.314 0.492,0.137 0.911,0.42 1.23,0.802 0.843,1.008 1.585,2.085 1.419,3.378 m 2.662,36.41 c -0.042,0.889 -0.028,1.7 -0.127,2.496 -0.162,1.31 -0.422,2.607 -0.45,3.934 -0.033,1.527 -0.035,3.055 -0.089,4.581 -0.049,1.359 -0.141,2.717 -0.234,4.074 -0.073,1.044 -0.177,2.085 -0.268,3.127 -0.013,0.146 -0.031,0.292 -0.042,0.438 -0.077,0.915 -0.159,1.829 -0.225,2.744 -0.044,0.587 -0.066,1.176 -0.096,1.764 -0.02,0.404 -0.093,0.816 -0.044,1.211 0.081,0.668 -0.125,1.276 -0.291,1.883 -0.217,0.786 -0.279,0.793 -1.081,0.818 -0.122,0.004 -0.245,0.006 -0.367,0.017 -0.521,0.046 -0.949,-0.169 -1.323,-0.485 -0.009,-0.072 -0.022,-0.109 -0.017,-0.144 0.141,-0.909 0.279,-1.818 -0.137,-2.698 -0.021,-0.047 -0.022,-0.107 -0.023,-0.162 -0.015,-0.735 -0.086,-1.474 -0.031,-2.203 0.177,-2.353 0.198,-4.706 0.131,-7.062 -0.064,-2.223 -0.17,-4.446 -0.201,-6.67 -0.016,-1.12 0.079,-2.243 0.152,-3.362 0.063,-0.976 0.1,-1.947 -0.024,-2.92 -0.02,-0.155 -0.003,-0.315 -0.003,-0.473 1.597,-0.302 3.139,-0.595 4.79,-0.908 M 18.579,76.504 c -0.028,0.004 -0.055,0.009 -0.084,0.014 -0.128,0.165 -0.265,0.324 -0.382,0.496 -0.335,0.494 -0.386,1.086 -0.509,1.654 -0.109,0.508 -0.244,0.6 -0.719,0.597 -0.382,-0.003 -0.764,0.05 -1.147,0.053 -0.55,0.005 -1.118,0.151 -1.685,-0.222 -0.016,-1.669 -0.034,-3.357 -0.044,-5.044 -0.002,-0.276 0.049,-0.552 0.045,-0.827 -0.041,-3.532 -0.083,-7.065 -0.139,-10.598 -0.009,-0.551 -0.087,-1.1 -0.129,-1.65 -0.088,-1.172 -0.181,-2.343 -0.257,-3.516 -0.054,-0.825 -0.078,-1.653 -0.12,-2.479 -0.021,-0.412 -0.055,-0.824 -0.086,-1.266 0.822,0.005 1.603,-0.007 2.391,0.073 0.793,0.081 1.602,-0.017 2.412,-0.037 0.171,0.21 0.174,0.454 0.132,0.719 -0.036,0.233 -0.051,0.471 -0.056,0.708 -0.022,0.896 0.07,1.785 0.014,2.69 -0.075,1.242 0.027,2.497 0.063,3.747 0.046,1.616 0.105,3.232 0.155,4.848 0.052,1.728 0.115,3.455 0.14,5.183 0.024,1.619 0.005,3.239 0.005,4.857 m 9.196,1.069 c -0.056,-1.946 -0.108,-3.84 -0.168,-5.733 -0.042,-1.288 -0.112,-2.574 -0.143,-3.861 -0.057,-2.3 -0.131,-4.599 -0.127,-6.899 0.004,-1.469 0.15,-2.937 0.201,-4.407 0.03,-0.843 -0.003,-1.69 -0.007,-2.535 0,-0.085 0.007,-0.17 0.011,-0.271 1.618,-0.206 3.201,-0.409 4.798,-0.613 0.211,1.115 0.158,2.179 0.102,3.243 -0.064,1.174 -0.137,2.348 -0.174,3.523 -0.016,0.475 0.072,0.952 0.076,1.428 0.015,1.547 0.008,3.094 0.019,4.64 0.008,0.955 0.065,1.912 0.047,2.866 -0.029,1.415 -0.117,2.829 -0.159,4.243 -0.03,1.048 -0.033,2.097 -0.035,3.146 -10e-4,0.292 0.035,0.586 0.071,0.877 0.049,0.397 0.115,0.791 0.184,1.248 -0.245,-0.014 -0.45,-0.02 -0.653,-0.039 -0.66,-0.064 -1.318,-0.169 -1.979,-0.191 -0.755,-0.026 -1.45,-0.19 -2.064,-0.665 M 39.03,48.778 c -0.048,0.481 -0.102,0.909 -0.128,1.34 -0.015,0.253 -0.13,0.355 -0.351,0.392 -0.999,0.165 -1.997,0.338 -2.996,0.507 -1.377,0.234 -2.756,0.466 -4.134,0.701 -0.189,0.033 -0.375,0.091 -0.564,0.114 -1.026,0.124 -2.053,0.232 -3.078,0.361 -1.256,0.158 -2.519,0.206 -3.772,0.06 -0.749,-0.087 -1.484,-0.165 -2.241,-0.131 -1.766,0.081 -3.533,0.129 -5.3,0.14 -1.172,0.008 -2.345,-0.07 -3.517,-0.114 -0.103,-0.004 -0.213,-0.08 -0.306,-0.059 -0.295,0.067 -0.398,-0.152 -0.534,-0.343 -0.169,-0.237 -0.168,-0.497 -0.138,-0.81 0.175,0.093 0.311,0.171 0.452,0.24 0.446,0.219 0.868,0.058 0.983,-0.434 0.094,-0.398 0.091,-0.821 0.134,-1.272 0.077,-0.147 0.215,-0.339 0.285,-0.555 0.235,-0.729 0.101,-1.445 -0.147,-2.162 0.401,-0.192 0.411,-0.478 0.313,-0.876 C 13.837,45.24 13.551,44.694 13.215,44.15 12.637,43.212 11.831,42.6 10.865,42.208 10.57,42.089 10.414,41.928 10.328,41.61 10.219,41.206 10.078,40.802 9.887,40.435 9.744,40.158 9.617,39.828 9.242,39.673 9.128,39.782 8.931,39.882 8.9,40.022 c -0.058,0.257 -0.079,0.559 -0.005,0.805 0.148,0.483 0.376,0.938 0.563,1.408 0.044,0.113 0.059,0.238 0.07,0.284 C 8.924,43.11 8.369,43.654 7.792,44.22 7.72,44.08 7.657,43.99 7.625,43.889 7.3,42.885 6.765,42.008 6.183,41.152 5.974,40.846 5.876,40.459 5.72,40.114 5.63,39.916 5.518,39.73 5.427,39.533 5.283,39.223 5.116,38.919 5.019,38.593 4.927,38.283 4.9,37.948 4.866,37.622 4.799,37.003 4.707,36.382 4.698,35.761 4.685,34.805 4.728,33.847 4.76,32.891 4.767,32.675 4.797,32.449 4.869,32.248 5.136,31.493 5.411,30.741 5.712,29.999 6.061,29.133 6.609,28.426 7.366,27.91 c 0.352,-0.24 0.697,-0.493 1.062,-0.708 1.052,-0.621 2.073,-1.326 3.181,-1.811 1.103,-0.483 2.29,-0.762 3.452,-1.086 0.825,-0.229 1.666,-0.397 2.505,-0.569 1.044,-0.214 2.086,-0.476 3.141,-0.589 1.637,-0.175 3.285,-0.222 4.924,-0.361 1.66,-0.142 3.322,-0.208 4.983,-0.101 0.872,0.057 1.742,0.16 2.608,0.277 0.553,0.075 1.097,0.226 1.646,0.324 1.383,0.246 2.726,0.632 3.998,1.257 0.6,0.296 1.165,0.675 1.765,0.971 1.144,0.566 2.065,1.425 2.92,2.376 0.287,0.32 0.564,0.656 0.803,1.016 0.337,0.51 0.721,1.016 0.925,1.587 0.236,0.659 0.275,1.39 0.436,2.085 0.237,1.025 0.152,2.088 0.081,3.135 -0.053,0.785 -0.107,1.569 -0.302,2.343 -0.36,1.432 -0.98,2.746 -1.565,4.078 -0.092,0.209 -0.241,0.389 -0.408,0.654 -0.431,-0.439 -0.825,-0.82 -1.194,-1.226 -0.206,-0.227 -0.236,-0.499 -0.113,-0.811 0.233,-0.593 0.421,-1.2 0.463,-1.853 0.026,-0.399 0.145,-0.791 0.19,-1.19 0.058,-0.512 0.094,-1.028 -0.192,-1.497 -0.096,-0.156 -0.222,-0.287 -0.381,-0.158 -0.288,0.23 -0.584,0.497 -0.678,0.866 -0.116,0.456 -0.163,0.938 -0.19,1.411 -0.028,0.481 -0.081,0.947 -0.23,1.405 -0.095,0.292 -0.184,0.602 -0.188,0.905 -0.004,0.304 -0.128,0.483 -0.338,0.635 -0.447,0.323 -0.911,0.625 -1.34,0.973 -0.273,0.222 -0.538,0.481 -0.734,0.777 -0.388,0.585 -0.341,0.893 0.108,1.333 0.019,0.019 0.012,0.067 0.005,0.022 -0.248,0.493 -0.463,0.931 -0.689,1.364 -0.1,0.191 -0.063,0.317 0.074,0.486 0.246,0.303 0.572,0.386 0.947,0.452 -0.087,0.195 -0.162,0.357 -0.232,0.522 -0.365,0.869 -0.344,0.989 0.221,1.574 M 13.877,22.848 c -0.491,0.166 -0.915,0.312 -1.341,0.454 -0.732,0.247 -1.45,0.514 -2.114,0.944 -0.64,0.413 -1.321,0.756 -1.975,1.144 -0.901,0.532 -1.702,1.217 -2.533,1.854 -0.477,0.366 -0.8,0.885 -1.065,1.417 -0.492,0.991 -0.935,2.012 -1.212,3.098 -0.067,0.264 -0.122,0.539 -0.134,0.811 -0.041,0.952 -0.057,1.907 -0.088,2.86 -0.039,1.228 0.107,2.414 0.697,3.505 0.047,0.087 0.023,0.214 0.057,0.313 0.076,0.224 0.111,0.508 0.263,0.647 0.275,0.251 0.326,0.575 0.449,0.891 0.203,0.525 0.429,1.051 0.722,1.523 0.474,0.762 0.822,1.576 1.114,2.424 0.059,0.17 0.152,0.327 0.235,0.486 0.109,0.208 0.232,0.397 0.212,0.663 -0.011,0.15 0.076,0.312 0.131,0.464 0.432,1.218 1.215,2.224 1.828,3.333 0.405,0.731 0.818,1.455 1.38,2.076 0.272,0.3 0.517,0.602 0.969,0.509 0.045,0.108 0.126,0.204 0.107,0.27 -0.102,0.372 0.08,0.595 0.345,0.77 0.208,0.139 0.234,0.337 0.242,0.57 0.064,1.876 0.126,3.752 0.211,5.628 0.032,0.677 0.125,1.352 0.19,2.028 0.009,0.091 0.014,0.183 0.017,0.275 0.056,2.006 0.147,4.013 0.158,6.019 0.014,2.411 -0.041,4.823 -0.063,7.234 -0.003,0.35 0.023,0.699 0.02,1.049 -0.004,0.477 -0.04,0.954 -0.034,1.43 0.01,0.676 0.047,1.351 0.072,2.026 0.004,0.108 0,0.215 0,0.332 -0.198,0.078 -0.377,0.146 -0.555,0.219 -0.413,0.17 -0.732,0.481 -0.887,0.894 -0.179,0.476 -0.087,1.198 0.448,1.414 0.482,0.193 1.003,0.35 1.513,0.377 1.032,0.055 2.069,0.021 3.103,0.002 0.312,-0.006 0.627,-0.063 0.933,-0.131 0.444,-0.098 0.636,-0.401 0.598,-0.892 -0.034,-0.436 -0.07,-0.872 -0.109,-1.351 0.055,-0.034 0.142,-0.087 0.228,-0.141 0.467,-0.293 0.718,-0.731 0.809,-1.289 0.04,-0.245 0.12,-0.483 0.178,-0.711 0.352,0.02 0.302,0.25 0.266,0.409 -0.179,0.782 -0.134,1.572 -0.126,2.364 0.003,0.328 0.028,0.615 0.304,0.829 0.09,0.07 0.134,0.209 0.18,0.285 0.696,0.153 1.356,0.347 2.027,0.435 0.995,0.131 1.999,0.167 2.879,-0.486 0.191,-0.142 0.345,-0.343 0.522,-0.524 0.267,0.874 1.041,1.261 1.732,1.717 0.204,0.134 0.508,0.135 0.766,0.134 1.051,-0.007 2.102,-0.031 3.152,-0.065 0.223,-0.007 0.455,-0.045 0.663,-0.127 0.499,-0.198 0.747,-0.644 0.633,-1.182 -0.164,-0.775 0.017,-1.529 0.026,-2.285 0.363,-0.11 0.56,-0.021 0.787,0.281 0.231,0.307 0.464,0.574 0.463,0.98 -0.001,0.235 -0.03,0.471 -0.062,0.704 -0.054,0.388 0.102,0.672 0.439,0.776 0.781,0.241 1.532,0.644 2.381,0.567 0.94,-0.084 1.882,-0.126 2.803,-0.388 0.385,-0.11 0.796,-0.144 1.197,-0.153 0.341,-0.008 0.607,-0.091 0.812,-0.391 0.09,-0.13 0.229,-0.222 0.252,-0.243 0.061,-0.37 0.078,-0.634 0.152,-0.879 0.268,-0.88 -0.036,-1.513 -0.891,-1.771 -0.766,-0.231 -1.547,-0.279 -2.336,-0.157 -0.115,0.017 -0.231,0.021 -0.428,0.038 0.153,-0.586 0.294,-1.107 0.424,-1.631 0.06,-0.244 0.133,-0.494 0.139,-0.744 0.025,-1.086 0.017,-2.172 0.043,-3.258 0.012,-0.459 0.083,-0.915 0.118,-1.374 0.097,-1.301 0.145,-2.609 0.295,-3.904 0.195,-1.682 0.323,-3.368 0.375,-5.059 0.045,-1.491 0.025,-2.984 0.055,-4.476 0.029,-1.362 0.276,-2.7 0.43,-4.049 0.12,-1.055 0.127,-2.131 0.102,-3.195 -0.017,-0.721 0.16,-1.365 0.39,-2.026 0.527,0.377 0.784,0.373 1.265,0.051 1.19,-0.798 2.059,-1.924 2.893,-3.089 0.339,-0.473 0.442,-1.03 0.568,-1.583 0.021,-0.09 0.014,-0.191 0.053,-0.27 0.183,-0.373 0.152,-0.705 -0.152,-0.968 0.303,-0.61 0.601,-1.187 0.88,-1.776 0.584,-1.235 1.139,-2.485 1.365,-3.858 0.111,-0.668 0.211,-1.343 0.248,-2.019 0.044,-0.807 0.007,-1.619 0.017,-2.429 0.008,-0.667 -0.059,-1.314 -0.27,-1.952 -0.123,-0.377 -0.117,-0.797 -0.205,-1.189 -0.172,-0.766 -0.57,-1.419 -1.008,-2.04 -0.774,-1.096 -1.649,-2.097 -2.586,-3.042 -0.557,-0.56 -1.245,-0.884 -1.875,-1.311 -1.547,-1.046 -3.248,-1.697 -5.035,-2.118 -0.255,-0.06 -0.507,-0.14 -0.758,-0.217 -0.065,-0.021 -0.123,-0.065 -0.172,-0.092 0.316,-0.701 0.646,-1.382 0.932,-2.083 0.433,-1.063 0.852,-2.14 0.859,-3.321 0.005,-0.678 -0.03,-1.359 -0.093,-2.034 C 36.83,13.519 36.532,13.029 36.241,12.545 35.755,11.732 35.246,10.938 34.443,10.424 34.222,10.282 33.982,10.169 33.743,10.06 33.551,9.971 33.338,9.93 33.154,9.829 32.665,9.562 32.161,9.438 31.605,9.376 31.048,9.314 30.498,9.251 29.939,9.278 29.459,9.3 29.006,9.418 28.598,9.7 c -0.395,0.271 -0.819,0.501 -1.186,0.807 -0.7,0.585 -1.156,1.353 -1.501,2.223 -0.242,0.608 -0.549,1.182 -0.702,1.832 -0.29,1.222 -0.232,2.437 -0.04,3.663 0.132,0.836 0.501,1.559 0.879,2.283 0.066,0.124 0.126,0.251 0.221,0.444 -1.266,0.103 -2.47,0.201 -3.704,0.302 0.582,-1.178 0.905,-2.361 0.982,-3.621 0.029,-0.476 0.126,-0.949 0.134,-1.425 0.015,-0.981 -0.114,-1.971 -0.478,-2.857 -0.517,-1.255 -1.441,-2.186 -2.687,-2.639 -1.015,-0.37 -2.045,-0.403 -3.128,-0.07 -1.024,0.316 -1.947,0.813 -2.866,1.331 -0.619,0.349 -1.059,0.951 -1.49,1.535 -0.116,0.159 -0.201,0.346 -0.323,0.5 -0.611,0.774 -0.88,1.674 -0.815,2.66 0.109,1.642 0.333,3.259 1.079,4.749 0.243,0.485 0.41,1.015 0.904,1.431"
       id="path21"
       inkscape:connector-curvature="0"
       style="fill:#ffffff" /></g></svg>