<?xml version="1.0" encoding="UTF-8" standalone="no"?>
<!-- Generator: Adobe Illustrator 16.0.0, SVG Export Plug-In . SVG Version: 6.00 Build 0)  -->

<svg
   xmlns:dc="http://purl.org/dc/elements/1.1/"
   xmlns:cc="http://creativecommons.org/ns#"
   xmlns:rdf="http://www.w3.org/1999/02/22-rdf-syntax-ns#"
   xmlns:svg="http://www.w3.org/2000/svg"
   xmlns="http://www.w3.org/2000/svg"
   xmlns:xlink="http://www.w3.org/1999/xlink"
   xmlns:sodipodi="http://sodipodi.sourceforge.net/DTD/sodipodi-0.dtd"
   xmlns:inkscape="http://www.inkscape.org/namespaces/inkscape"
   version="1.1"
   id="Layer_1"
   x="0px"
   y="0px"
   width="126.03598"
   height="36.304993"
   viewBox="0 0 126.036 36.304991"
   enable-background="new 0 0 226.77 226.77"
   xml:space="preserve"
   inkscape:version="0.91 r13725"
   sodipodi:docname="ladder.svg"><metadata
     id="metadata29"><rdf:RDF><cc:Work
         rdf:about=""><dc:format>image/svg+xml</dc:format><dc:type
           rdf:resource="http://purl.org/dc/dcmitype/StillImage" /><dc:title></dc:title></cc:Work></rdf:RDF></metadata><defs
     id="defs27" /><sodipodi:namedview
     pagecolor="#ffffff"
     bordercolor="#666666"
     borderopacity="1"
     objecttolerance="10"
     gridtolerance="10"
     guidetolerance="10"
     inkscape:pageopacity="0"
     inkscape:pageshadow="2"
     inkscape:window-width="1366"
     inkscape:window-height="768"
     id="namedview25"
     showgrid="false"
     fit-margin-top="0.4"
     fit-margin-left="1.5"
     fit-margin-right="0"
     fit-margin-bottom="0"
     inkscape:zoom="1.481555"
     inkscape:cx="54.069469"
     inkscape:cy="-50.925674"
     inkscape:window-x="0"
     inkscape:window-y="0"
     inkscape:window-maximized="0"
     inkscape:current-layer="Layer_1" /><g
     id="g3"
     transform="translate(-44.1,-38.906003)"><defs
       id="defs5"><rect
         id="SVGID_1_"
         x="46"
         y="39.306"
         width="124.136"
         height="35.904999" /></defs><clipPath
       id="SVGID_2_"><use
         xlink:href="#SVGID_1_"
         overflow="visible"
         id="use9"
         style="overflow:visible"
         x="0"
         y="0"
         width="100%"
         height="100%" /></clipPath><path
       clip-path="url(#SVGID_2_)"
       d="m 45.162,71.45 c 0.177,-0.31 0.318,-0.562 0.494,-0.869 -0.14,-0.071 -0.246,-0.124 -0.33,-0.167 -0.055,-0.457 -0.111,-0.921 -0.173,-1.436 0.148,-0.265 0.298,-0.611 0.519,-0.905 0.152,-0.201 0.379,-0.423 0.607,-0.47 1.669,-0.343 3.36,-0.251 5.047,-0.201 0.264,0.008 0.531,0.01 0.797,0.002 0.94,-0.025 1.88,-0.065 2.82,-0.083 0.862,-0.017 1.725,-0.021 2.588,-0.016 1.457,0.01 2.913,0.033 4.368,0.045 0.59,0.005 1.179,0.001 1.841,0.001 0.169,-0.671 0.368,-1.396 0.536,-2.125 0.526,-2.28 1.069,-4.557 1.559,-6.845 0.479,-2.239 0.881,-4.493 1.357,-6.733 0.275,-1.293 0.621,-2.569 0.946,-3.852 0.265,-1.044 0.546,-2.082 0.812,-3.125 0.024,-0.095 -0.017,-0.205 -0.027,-0.29 -0.422,-0.228 -0.447,0.173 -0.683,0.398 -0.075,-0.349 -0.238,-0.543 -0.616,-0.541 -0.781,0.005 -1.564,-0.066 -2.345,-0.087 -2.511,-0.075 -5.022,-0.109 -7.531,-0.224 -1.775,-0.082 -3.546,-0.277 -5.321,-0.404 -0.97,-0.069 -1.939,-0.098 -2.91,-0.149 -0.179,-0.01 -0.357,-0.043 -0.609,-0.072 0.082,-0.204 0.139,-0.339 0.224,-0.541 -0.178,-0.039 -0.367,-0.077 -0.671,-0.14 0.62,-0.523 0.256,-0.995 0.069,-1.48 -0.177,-0.037 -0.36,-0.078 -0.58,-0.127 0.072,-0.24 0.137,-0.456 0.195,-0.643 -0.263,-0.312 -0.684,0.299 -0.861,-0.24 0.276,-0.522 0.709,-0.326 1.075,-0.229 0.16,-0.293 0.253,-0.629 0.474,-0.815 0.198,-0.167 0.536,-0.171 0.815,-0.239 0.102,-0.024 0.258,0.019 0.312,-0.039 0.596,-0.639 1.352,-0.314 1.984,-0.235 1.661,0.205 3.31,0.429 4.989,0.45 1.046,0.015 2.09,0.182 3.138,0.245 0.503,0.032 1.012,-0.011 1.518,-0.026 0.107,-0.003 0.226,-0.076 0.317,-0.046 1.1,0.371 2.225,0.047 3.335,0.143 0.636,0.054 1.269,0.173 1.905,0.199 0.615,0.026 1.234,-0.057 1.849,-0.046 1.262,0.025 2.539,-0.027 3.783,0.145 1.514,0.205 3,-0.049 4.498,-0.052 1.121,-0.002 2.243,0.022 3.365,0.032 1.457,0.011 2.912,0.02 4.369,0.03 0.911,0.01 1.823,-0.003 2.732,0.043 0.642,0.031 1.282,0.211 1.92,0.208 1.018,-0.007 2.032,-0.12 3.053,0.024 0.666,0.091 1.342,0.136 2.013,0.139 1.075,0.005 2.149,-0.057 3.222,-0.061 0.374,0 0.765,0.188 1.116,0.12 1.146,-0.23 2.297,-0.008 3.446,-0.109 0.638,-0.056 1.288,-0.016 1.932,0.016 1.153,0.061 2.306,0.149 3.46,0.224 0.216,0.012 0.439,-0.009 0.646,0.035 1.563,0.334 3.157,0.292 4.738,0.373 2.968,0.157 5.933,0.284 8.897,0.452 2.289,0.132 4.578,0.287 6.865,0.471 1.986,0.16 3.967,0.405 5.957,0.558 1.531,0.12 3.071,0.16 4.607,0.22 2.16,0.083 4.322,0.105 6.479,0.239 2.1,0.129 4.194,0.368 6.293,0.553 1.83,0.161 3.662,0.295 5.488,0.471 2.145,0.209 4.287,0.452 6.433,0.674 0.938,0.098 1.877,0.224 2.816,0.272 0.664,0.034 0.851,0.691 1.356,0.908 0.031,0.013 0.057,0.104 0.043,0.147 -0.149,0.503 -0.14,1.002 -0.009,1.508 0.018,0.066 -0.015,0.177 -0.062,0.226 -0.842,0.8 -1.511,1.816 -2.938,1.707 -2.449,-0.185 -4.906,-0.233 -7.358,-0.383 -1.319,-0.081 -2.632,-0.258 -3.951,-0.381 -0.75,-0.071 -0.825,0.024 -0.866,0.777 -0.072,1.482 -0.066,2.976 -0.271,4.444 -0.286,2.063 -0.31,4.129 -0.312,6.2 -0.006,1.131 -0.078,2.258 -0.104,3.388 -0.014,0.484 0.007,0.968 0.018,1.45 0.038,1.613 0.077,3.224 0.131,4.834 0.008,0.287 0.086,0.575 0.147,0.957 1.474,0.023 2.897,0.075 4.319,0.073 1.976,-0.004 3.944,-0.009 5.909,0.215 1.019,0.119 2.055,0.048 3.073,0.148 0.965,0.094 1.933,0.249 2.873,0.472 1.064,0.251 1.347,1.396 0.596,2.193 -0.092,0.097 -0.229,0.182 -0.267,0.297 -0.131,0.423 -0.429,0.599 -0.825,0.598 -0.252,0.809 -0.302,0.801 -1.058,0.841 -2.047,0.108 -4.078,-0.206 -6.127,-0.181 -1.369,0.016 -2.74,-0.182 -4.113,-0.223 -0.942,-0.03 -1.889,0.086 -2.833,0.065 -2.188,-0.052 -4.374,-0.159 -6.559,-0.222 -1,-0.028 -2.002,0.031 -2.997,-0.008 -2.212,-0.078 -4.419,-0.197 -6.628,-0.288 -0.647,-0.025 -1.297,0 -1.946,-0.013 -2.563,-0.051 -5.129,-0.069 -7.688,-0.182 -2.207,-0.098 -4.408,-0.336 -6.615,-0.458 -1.694,-0.094 -3.396,-0.084 -5.092,-0.156 -2.398,-0.1 -4.793,-0.248 -7.19,-0.355 -2.123,-0.095 -4.248,-0.177 -6.374,-0.239 -1.86,-0.054 -3.72,-0.085 -5.583,-0.092 -1.857,-0.004 -3.719,0.035 -5.577,0.052 -1.077,0.009 -2.151,0.003 -3.227,0.018 -0.511,0.007 -1.023,0.065 -1.535,0.07 -1.53,0.016 -3.069,0.13 -4.586,0.003 -2.194,-0.183 -4.381,0.029 -6.576,-0.074 -1.502,-0.074 -2.997,-0.278 -4.503,-0.267 -0.42,0.003 -0.844,0.123 -1.264,0.107 -0.468,-0.017 -0.933,-0.131 -1.401,-0.198 -1.624,-0.232 -3.251,-0.415 -4.898,-0.408 -0.674,0.006 -1.363,-0.137 -2.012,-0.027 -1.03,0.174 -2.004,-0.251 -3.022,-0.123 -0.833,0.103 -1.678,0.123 -2.52,0.136 -1.153,0.016 -2.314,0.055 -3.461,-0.034 -0.802,-0.068 -1.554,0.063 -2.324,0.195 -0.368,0.063 -0.739,0.129 -1.109,0.136 -0.704,0.012 -1.406,0 -2.106,-0.041 -0.346,-0.02 -0.684,-0.122 -1.024,-0.196 -0.155,-0.033 -0.324,-0.152 -0.455,-0.113 -0.356,0.102 -0.558,0.042 -0.67,-0.34 -0.033,-0.115 -0.24,-0.178 -0.39,-0.283 M 88.449,44.588 c -0.222,-0.034 -0.404,-0.081 -0.587,-0.09 -1.106,-0.052 -2.212,-0.117 -3.319,-0.138 -2.185,-0.046 -4.371,-0.077 -6.558,-0.097 -1.24,-0.013 -2.479,-0.015 -3.717,0.014 -0.731,0.02 -1.105,0.39 -1.273,1.086 -0.142,0.595 -0.295,1.19 -0.483,1.772 -0.372,1.145 -0.612,2.321 -1.028,3.467 -0.572,1.577 -0.767,3.291 -1.106,4.953 -0.202,0.99 -0.163,2.019 -0.466,3.003 -0.203,0.655 -0.416,1.334 -0.44,2.01 -0.032,0.85 -0.229,1.648 -0.451,2.454 -0.077,0.281 -0.122,0.571 -0.208,0.85 -0.263,0.858 -0.303,1.773 -0.744,2.589 -0.375,0.696 -0.025,1.241 0.781,1.327 0.214,0.024 0.43,0.039 0.644,0.055 1.29,0.096 2.58,0.223 3.87,0.275 1.884,0.073 3.768,0.104 5.653,0.131 1.453,0.023 2.903,0.017 4.355,0.021 1.015,0.002 2.028,0 2.977,0 0.171,-0.681 0.359,-1.294 0.474,-1.918 0.27,-1.454 0.523,-2.91 0.744,-4.372 0.198,-1.301 0.366,-2.608 0.507,-3.919 0.17,-1.579 0.313,-3.16 0.435,-4.742 0.143,-1.881 0.245,-3.764 0.378,-5.648 0.025,-0.345 0.119,-0.689 0.144,-1.037 0.018,-0.261 0.062,-0.698 -0.059,-0.763 -0.539,-0.278 -0.344,-0.803 -0.523,-1.283 m 22.414,1.065 c -0.384,-0.133 -0.697,-0.321 -1.027,-0.351 -1.905,-0.172 -3.812,-0.376 -5.724,-0.436 -3.073,-0.098 -6.149,-0.097 -9.221,-0.129 -0.854,-0.011 -0.973,0.056 -1.116,0.922 -0.165,1.006 -0.248,2.03 -0.354,3.045 -0.091,0.857 -0.179,1.713 -0.23,2.572 -0.057,0.994 -0.004,1.998 -0.117,2.983 -0.331,2.889 -0.572,5.79 -1.101,8.657 -0.244,1.321 -0.442,2.653 -0.653,3.98 -0.067,0.414 -0.108,0.83 -0.167,1.292 1.522,0 2.944,0.002 4.363,-0.002 1.458,-0.003 2.914,-0.035 4.37,-0.016 1.429,0.018 2.855,0.124 4.282,0.118 1.439,-0.009 2.876,0.212 4.445,0.076 -0.112,-7.677 1.216,-15.147 2.25,-22.711 m 4.694,0.026 c -0.106,0.417 -0.197,0.698 -0.25,0.985 -0.226,1.274 -0.435,2.55 -0.662,3.823 -0.135,0.764 -0.344,1.521 -0.438,2.286 -0.15,1.253 -0.225,2.515 -0.35,3.769 -0.125,1.258 -0.256,2.516 -0.416,3.771 -0.082,0.634 -0.284,1.255 -0.342,1.891 -0.077,0.858 -0.081,1.724 -0.096,2.587 -0.013,0.85 -0.17,1.7 0.016,2.552 0.043,0.194 -0.063,0.418 -0.087,0.629 -0.061,0.505 0.094,0.707 0.594,0.732 1.153,0.056 2.304,0.094 3.457,0.149 2.608,0.125 5.214,0.253 7.819,0.39 1.104,0.06 2.207,0.156 3.312,0.227 0.236,0.015 0.507,0.057 0.629,-0.231 0.137,-0.326 0.331,-0.65 0.365,-0.988 0.054,-0.552 -0.016,-1.118 -0.008,-1.677 0.009,-0.563 0.029,-1.128 0.074,-1.686 0.073,-0.883 0.194,-1.758 0.254,-2.64 0.031,-0.451 -0.053,-0.909 -0.035,-1.363 0.015,-0.329 0.129,-0.653 0.166,-0.982 0.07,-0.581 0.022,-1.158 -0.012,-1.741 -0.064,-1.123 0.032,-2.26 0.125,-3.385 0.114,-1.416 0.305,-2.826 0.444,-4.242 0.101,-0.988 0.177,-1.979 0.242,-2.969 0.032,-0.467 -0.416,-0.975 -0.897,-1.053 -0.24,-0.04 -0.484,-0.067 -0.725,-0.081 -1.284,-0.071 -2.571,-0.13 -3.854,-0.21 -0.401,-0.024 -0.8,-0.138 -1.199,-0.148 -0.881,-0.024 -1.764,-0.008 -2.645,-0.01 -0.107,-10e-4 -0.215,-0.014 -0.322,-0.022 -1.69,-0.119 -3.381,-0.238 -5.159,-0.363 m 32.582,24.522 c 0,-0.88 -0.006,-1.577 0,-2.274 0.057,-4.447 -0.231,-8.903 0.271,-13.346 0.189,-1.683 0.268,-3.377 0.373,-5.068 0.037,-0.579 0.117,-1.179 -0.223,-1.684 -4.502,-0.534 -9.01,-0.511 -13.555,-0.734 -0.06,0.289 -0.113,0.491 -0.142,0.697 -0.14,0.989 -0.296,1.976 -0.401,2.97 -0.089,0.834 -0.543,1.647 -0.174,2.517 0.029,0.067 0.006,0.161 -0.008,0.24 -0.243,1.205 -0.418,2.409 -0.26,3.65 0.046,0.358 -0.092,0.74 -0.145,1.113 -0.062,0.449 -0.167,0.9 -0.18,1.354 -0.038,1.204 -0.025,2.41 -0.055,3.614 -0.032,1.371 -0.029,2.751 -0.174,4.112 -0.063,0.608 0.135,1.379 -0.584,1.817 -0.061,0.038 -0.018,0.247 -0.027,0.438 5.071,0.193 10.105,0.385 15.284,0.584"
       id="path11"
       inkscape:connector-curvature="0"
       style="fill:#ffffff" /></g></svg>