<?xml version="1.0" encoding="UTF-8" standalone="no"?>
<svg
   xmlns:dc="http://purl.org/dc/elements/1.1/"
   xmlns:cc="http://creativecommons.org/ns#"
   xmlns:rdf="http://www.w3.org/1999/02/22-rdf-syntax-ns#"
   xmlns:svg="http://www.w3.org/2000/svg"
   xmlns="http://www.w3.org/2000/svg"
   xmlns:sodipodi="http://sodipodi.sourceforge.net/DTD/sodipodi-0.dtd"
   xmlns:inkscape="http://www.inkscape.org/namespaces/inkscape"
   viewBox="0 0 331 274.92346"
   id="svg2"
   version="1.1"
   inkscape:version="0.91 r13725"
   sodipodi:docname="twitter.svg"
   width="331"
   height="274.92346"
   style="fill:#3ba9ee">
  <metadata
     id="metadata10">
    <rdf:RDF>
      <cc:Work
         rdf:about="">
        <dc:format>image/svg+xml</dc:format>
        <dc:type
           rdf:resource="http://purl.org/dc/dcmitype/StillImage" />
        <dc:title></dc:title>
      </cc:Work>
    </rdf:RDF>
  </metadata>
  <defs
     id="defs8" />
  <sodipodi:namedview
     pagecolor="#ffffff"
     bordercolor="#666666"
     borderopacity="1"
     objecttolerance="10"
     gridtolerance="10"
     guidetolerance="10"
     inkscape:pageopacity="0"
     inkscape:pageshadow="2"
     inkscape:window-width="1366"
     inkscape:window-height="768"
     id="namedview6"
     showgrid="false"
     fit-margin-top="0"
     fit-margin-left="0"
     fit-margin-right="0"
     fit-margin-bottom="0"
     inkscape:zoom="0.85507246"
     inkscape:cx="-53.610169"
     inkscape:cy="137.21769"
     inkscape:window-x="0"
     inkscape:window-y="0"
     inkscape:window-maximized="0"
     inkscape:current-layer="svg2" />
  <path
     d="M 299,69.705764 A 195,195 0 0 1 0,244.70576 a 142,142 0 0 0 97,-30 70,70 0 0 1 -58,-47 70,70 0 0 0 31,-2 70,70 0 0 1 -57,-65.999996 70,70 0 0 0 28,4.999996 70,70 0 0 1 -18,-89.999996 195,195 0 0 0 141,72 67,67 0 0 1 116,-62 117,117 0 0 0 43,-17.0000001 65,65 0 0 1 -31,38.0000001 117,117 0 0 0 39,-11 65,65 0 0 1 -32,35"
     id="path4"
     style="fill:#000000"
     inkscape:connector-curvature="0" />
</svg>
